<?xml version="1.0" encoding="UTF-8"?>
<svg id="Camada_2" data-name="Camada 2" xmlns="http://www.w3.org/2000/svg" viewBox="0 0 1101 174.18">
  <defs>
    <style>
      .cls-1 {
        fill-rule: evenodd;
      }

      .cls-1, .cls-2 {
        fill: #fff;
      }

      .cls-2 {
        font-family: Elinga, Elinga;
        font-size: 126.58px;
      }

      .cls-3 {
        letter-spacing: 0em;
      }

      .cls-4 {
        letter-spacing: 0em;
      }
    </style>
  </defs>
  <g id="Layer_1" data-name="Layer 1">
    <g>
      <text class="cls-2" transform="translate(12.21 128.35)"><tspan x="0" y="0">T</tspan><tspan class="cls-4" x="81.14" y="0">O</tspan><tspan x="177.98" y="0">MÁS </tspan><tspan class="cls-3" x="487.21" y="0">O</tspan><tspan x="584.05" y="0">LIVEIRA</tspan></text>
      <g>
        <path class="cls-1" d="M5.17,170.44c-.3,0-2.2.1-2.73.2-1.25.04-1.31-.1-2.44-.08.34-.3,2.04-.66.81-.95.94-.15,2.22-.26,2.99-.43.9.23,3.2.4,2.44.63,1.91-.15,2.46-.49,5.18-.51.43.39-2.12.83-1.09,1.3-1.77.05-3.41.11-4.89.2-.78,0-.75-.31-.27-.36Z"/>
        <path class="cls-1" d="M469.68,172.69c.55-.19.64-.53,2.99-.39-.34.13-.61.28-.81.44-1.04.03-1.31.03-2.17-.04Z"/>
        <path class="cls-1" d="M491.71,171.23c1.31.06,1.14.26,1.36.39-.95-.06-1.27-.21-1.36-.39Z"/>
        <path class="cls-1" d="M826.97,172.93c.16-.09.39-.18.28-.32.64.03.99.35-.28.32Z"/>
        <path class="cls-1" d="M841.11,170.44c-.05-.12,1.93-.14,1.36-.2.52-.12.98.09,1.37.12.96.02.67-.14,1.63-.12-.17.21-1.75.22-1.36.51-1.96-.02-1.86-.26-2.99-.32Z"/>
        <path class="cls-1" d="M930.91,170.09v-.16c.73.06,1.59-.05,1.37.2-.32-.03-.73-.05-1.37-.04Z"/>
        <path class="cls-1" d="M985.88,170.99c-.42,0-.6-.29.27-.24.2.12-.28.14-.27.24Z"/>
        <path class="cls-1" d="M1002.75,170.99c.27,0,.22.05.28.08.22,0,.25-.02.26-.04.68,0,.08.14,0,.16-.59,0-.58-.1-.55-.2Z"/>
        <path class="cls-1" d="M1051.46,169.34c2.45.15-.98.32,0,0h0Z"/>
        <path class="cls-1" d="M1096.09,168.15c-.4.14-1.58.16-2.17.28-2.89-.25-4.61.16-7.9.08-.87-.02-2.36-.17-2.99.04-.31,0-.48,0-.54-.04-.01-.2,2.52-.23,4.08-.28,3.28-.09,6.71-.28,9.52-.08Z"/>
        <path class="cls-1" d="M615.53,170.64c-.73.11,2.44-.14,3,.08,4.53-.55,11.71-.22,17.41-.2,1.64,0,3.24-.09,4.9-.08,6.04.04,11.83.14,16.6.08.47.05,0,.24.81.24.05-.05-.04-.11.28-.12.72.2,2.2-.11,4.35-.04.52.02.21.15,1.09.12.71-.02.82-.12,1.63-.12,3.55-.07,5.54.12,7.07.08,1.05-.03,2.5.08,3.82.04,6.91-.2,16.73.06,24.76,0-.01.05-.35.06-.27.12,1.17.04.78-.15,1.63-.16.5.25,2.26.09,2.44.35.28-.15.94,0,1.91-.04-.13-.2.37-.31,1.63-.32-.2.11.54.08.54.16-.24.08-.83.12-.81.24.79-.04.94-.05,1.36.04.59-.2,1.48-.36,2.72-.47.77.33.21.65,1.36.95,2.29-.02.97-.57,2.45-.71,1.59.06,1.33-.15,2.73-.12.71.01.24.2.81.24.89-.06.1-.35,1.36-.36.46,0,.7.03.81.08-.09.17-1.07.38-.55.51.94.02.82-.12,1.37-.16.15.06-.32.2.27.2.77-.37,1.88-.87,4.89-.59.25.22-.52.29-.55.47.77.06,1.12-.01,2.18.04,0-.31,1.14-.47,2.45-.59.93.06,1.26.09,2.45.04.51.18.84.38,1.08.59,1.5-.09,1.33-.41,2.18-.59,2.38,0,2.7.15,4.35.2-1.25-.07-2.03.24-.27.28-.13-.19,1.13-.09,1.63-.04-.05-.27.45-.46,1.64-.55.89.19,1.37.43,1.9.67,2.5-.05,3.66.39,3,.55.83,0,.65-.14,1.63-.12,1.11.09,1.74.17,2.17.28-.36-.22.5-.44,1.37-.59.72.29,1.08.63,2.72.79.39-.11,1.1-.31,1.91-.24.29.14,1.65.13,2.17.24,0-.17.4-.31,1.36-.24.09-.14.03-.31,1.09-.32.24.23.3.48,1.36.59.78-.12.81-.32,2.18-.16-.4-.24.49-.51.27-.71.85-.02.73.11,1.36.12.52-.16.66-.38,1.64-.47,1.1.33,2.07.67,3.26.99-.19-.11.56-.08.81-.12.37-.14-1.22-.19-.27-.28.36,0,.25.07.55.08.84-.36-.78-1.13,1.9-1.34.27.27.98.74.55,1.03,1.87.04,1.53.28,2.72.47,1.02-.22.02-.73,2.45-.75.88.14,1.98.31,1.63.51.69.05.85-.02,1.1.04-.06.14-.4.19.26.28,1.94-.27.31-.72.28-1.14h1.36c.2.25.21.52,1.09.67,2.01-.31-.99-1.14,2.45-1.26.28.42-.76.88.81,1.15-1.37.02-.55.28,0,.36.18-.21.43.11.81.12.15-.06-.32-.2.28-.2.54.08.13.19,0,.28,1.76.03,1.14-.28,2.17-.36.05-.11-.92-.08-.55-.24,3.82-.16.92-1.1,4.63-1.22.83.39-.9.98-1.63,1.38-.51-.03-.18-.12-.81-.04.21.3.06.65,1.36.79-.06-.48.13-.92,1.36-1.26.91.21.75.83.81,1.15,1.23-.01,2.83.2,4.08.24.37.08-.13.28,1.09.24.32-.18-1.21-.09-.82-.28.92-.07,1.58-.16,2.46-.04.26-.18.43-.38,1.36-.47,2.06.41-1.05.97,1.9,1.14.06-.03.23-.05.55-.04.49-.21-.9-.4-.81-.67,1.11-.09,2.33-.16,3.81-.2-.67-.2.07-.4,0-.63-.68-.02-1.12-.07-1.63-.12.1-.22-.58-.36.54-.47.71-.01,1.36-.01,1.09.12.93.03.35-.16,1.36-.12.44.07-.25.13.54.2.57-.4.61-.86,2.72-1.18-.11.45,1.46.29,2.99.39-.19-.21.46-.3.81-.43.28-.04,1.94-.08,2.18,0-1.39.28,1.09.89-1.91.91.17.3-1.37.36-.82.71.9.03,1.42.11,1.9.2.26.19-.79.34.28.43-.32-.27,1.07-.29,1.36-.47-1.35-.31-.73-.92.55-1.18,1.36.18,3.03.05,4.08.04v.32c1.3-.03.73.21,1.9.2.61-.02-.04-.22.81-.2,1,.38-1.49.68-1.08.99-.88-.03-.57-.03-1.09.04.05.09,1.49.05.55.24-.36-.12-1.17-.07-1.63,0-.12.15.57.18,1.08.24,2.09-.33,3.16-.76,2.72-1.34.56-.2,2.04-.26,2.45-.47,1-.04,1.18.25,1.64.16-1.12-.24.91-.49.27-.75-1.2.01-1.74.16-3.26.04-.46.07.17.29-.83.28.11-.15-1.04-.43.54-.44.46,0,.15.11.55.12.45-.08-.04-.05,0-.16,4.47-.09,6.63-.12,11.42-.08-.65.22,1.71.46,2.73.44-.66-.1-1.14-.23-1.09-.44,1.16.05,1.47.01,2.73,0-.71.12.28.25,0,.44-.26.07-.86.09-1.37.12-.04.19,1.17.2.82.43,1.28.09,2.19.13,3.53.04.98.06.87.27,2.17.28.46-.51.86-.85-.54-1.34,1.9,0,5.86-.15,7.07.08-.87.04-1.6,0-2.99.04-.81.48-.24.8,2.45.95.65-.03-.04-.24.55-.28.52,0,.6.04,1.09.04,1.16-.31-.96-.59-.55-.87,3.61.04,6.04-.06,9.25-.04-.37.16.49.14.82.2,1.27.03,1-.17,1.9-.2,1.52.33.05.88,1.08,1.15-.32-.12-.3-.17.54-.2,1.51.13.25.81,2.45.71-1.21.14.25.32.54.47.12-.29,1.33-.41,2.45-.55.26-.64-1.25-.86-.54-1.42.61.14,1.33.25,1.9.4-1.22.17,1.29.37-.27.55,1.87.16.8.31,2.44.47,1.59-.15,1.67.26,2.73.32,1.15-.12-.39-.24.27-.36.29.13.09-.11.82-.04.14.19.18.39,1.08.47.85.07.77-.2,1.09-.08-.38.05-.27.17-.28.28,1.43.03,1.64.24,2.73.32.24-.1,1.09-.1,1.9-.12.94.1,1.35.28,2.45.36-.09-.13-.47-.22-1.09-.28,1.61,0-.18-.28.81-.39,1.44.17,2.39.42,4.36.51-.13-.33-1.48-.49-.55-.83,1.19-.03.73.18.82.32,2.03.19,2.26.64,3.81.91,1.29-.17,1.03.17,3,.04.24-.26-1.63-.21-1.1-.51,1.14.16,2.12.11,3.54.24-.59-.31-1.48-.79-1.63-1.03,1.49-.07.26.25,1.36.24.28-.23.15-.03.81-.04.87-.09.94-.28,1.63-.4,3.57-.09,3.45.61,5.17.91h1.64c.5-.13-.15-.25.55-.39,1.53.13,1.97-.1,3-.16-.9-.25-.22-.72-.82-.95,0,.04-.47.05-.54,0,.59-.06,1.48-.03,1.63,0,.32.39.08.42.82.79,1.35.1,1.08-.11,1.91-.04-.97.06-.32.18.27.24.26-.63-.32-1.14-2.45-1.42.15-.07.14-.16.54-.2.87-.03.37.13,1.09.12,1.1-.27,3.53-.62,5.17-.28.05-.05-.05-.11.28-.12,2.66-.1,3.89.12,5.44.12.83,0,1.78-.24,2.44,0-.35.16-1.64.12-2.71.08-.13.09-.97.28-.28.36.67-.12-.3.11.28.08.24-.11.4-.04,1.08-.04-.13.06-1.05.21-.27.28.61-.1,1.01-.22,1.9-.28,1.33.03-.23.48,1.1.51.46-.02-.03-.19.55-.2,3.25-.05,3.49-.55,6.8-.59.06.07-.28.2.54.16-.83-.4.8-.48,3.54-.51.47.02-.02.19.54.2,1.13-.32,4.25,0,5.44-.2.04.07.18.13.54.16,4.06-.22,11.33.02,15.24-.16.73.11,2.1.12,2.73.24-.14.25-1.18.53.81.59,1.53-.11.26-.38,1.63-.51,1.2,0,1.31.18,1.63.32,0-.11,1.65-.18,2.18-.08-.81.05-.3.3-.81.39,1.41-.06.17-.5,1.91-.51.9.28.37.6,1.36.91.26-.41,2.29-.4,2.17-.91.49,0,1.37.04,1.09-.08-.83-.12-.37-.39.82-.43.78.17-.36.9,1.08,1.03,1.23-.28.13-.71,2.17-.91.43,0,.21.1.81.08.38-.09-.7-.15,0-.16.08.07.99.22.28.28-.36,0-.25-.07-.55-.08.03.18.69.27,1.08.4,1.13,0,1.29-.06,2.17,0,.07-.15.43-.25,1.09-.32.86-.02.72.14,1.37.04.68-.86,6.52-.19,10.34-.47.02.13.14.24.54.32.25-.09.37-.31,1.63-.36.89,0,1.32.05,1.36.16-1.96.07-2.45.49-3.81.75-1.04-.14,1.2-.45,0-.36-.77.09-.84.85-.27,1.03.22-.13.95-.18,2.18-.16.95-.55,1.59-1.14,3.53-1.54,5.94.15,11.29-.06,16.33.04,0,.16.26.28.81.36.55-.1-.59-.21-.27-.39.87.03.84-.06,1.36-.08.15.07-.33.23.27.24.38-.23,1.14-.19,2.18-.28.46.04.59.12.81.2,1.02-.22,2.23-.11,3-.28.35.03.5.08.55.16,1.12.02,1.02-.14,1.9-.16-.06.07.3.09.27.16,2.19-.21,4.08-.06,6.8-.16,1.57.07,1.08.45,2.18.59.17-.09.69-.14,1.08-.2.2-.15-1.45-.03-1.08-.2.65-.12,1.31-.17,2.17-.2,6.33-.21,11.82.11,17.96-.04,1.25.02.73.29,1.63.36.55-.21.08-.17.28-.36,3.8-.12,6.77.14,8.43-.28-1.81-.13-2.73,0-4.62,0,.74-.16-1.82-.05-2.45-.04.06-.08-1.15-.17-.54-.2,3.39.04,6.85-.02,10.34-.04,2.5-.01,3.79-.42,7.07-.36.84-.04-.15-.11.81-.12.77,0-.65.11.54.08,3.7-.06,8.35-.01,8.16-.55-6.86-.04-12.67-.04-20.41-.04-5.14,0-10.47-.05-14.97,0-10.35.12-20.82.12-30.48.16-3.79.01-12.96-.07-14.42.08-3.7-.09-9.03-.13-13.33-.12-48.98.08-100.12.5-150.48.16-9.5-.06-20.06.07-30.21,0-8.04-.06-16.62-.28-23.95-.16-3.52.06-6.64.17-10.06.2-24.35.19-49.11.18-75.11,0-27-.18-52.64-.14-78.91-.32-43.72-.3-88.11.01-131.16-.28-1.87-.01-4.36-.03-5.45-.04-9.02-.12-17.51.12-26.4.2-15.08.13-29.55.1-44.35.24-20.62.19-40.69.49-61.5.36-15.4-.1-31.38-.06-46.53-.16-3.8-.03-8.57-.02-11.16-.04-15.37-.1-31.13-.1-46.26,0-16.4.11-32.52-.02-47.35.08-5.37.04-9.93.24-14.15.24-1.41,0-2.68-.06-4.08-.04-1.9.03-3.54.15-5.45.16-1.69,0-3.55-.09-5.44-.08-1.71.01-3.5.15-5.44.16-1.86.01-3.83-.09-5.71-.08-2.88.01-5.67.14-8.71.12-3.84-.03-7.09.12-10.61.08-3.84-.05-7.54.06-11.7.04-7.57-.03-15.17.12-22.87.08-7.1-.04-14.34.13-21.49.08-11.15-.08-22.43.17-33.2.12-2.94-.01-5.58.08-8.43.08-1.82,0-3.67-.1-5.44-.08-2.61.03-4.6.15-7.08.12-3.79-.04-7.42.06-11.43.04-2.68-.01-6.47.1-9.8.08-3.68-.02-6.29-.03-9.8.04-.11.09.51.09.28.2,1.84-.13,3.87-.13,4.9-.04-.9.22,1.26.49-.81.59-.77-.09-1.83-.21-2.99-.12-.25-.19-1.57-.22-2.18-.36.04-.11.5-.17.54-.28-2.42-.01-6.66-.15-5.71.28,1.5-.18,3.49-.19,4.62-.04,0,.17-.16.37.55.43-1.91.28-1.72.62-2.18,1.11-.96.1-4.05.32-1.63.43.4-.09-.09-.17.27-.2.38,0,.6-.02.82-.04.59.12,1.4.22,1.36.44,1.24.05.86-.14,1.63-.16.04.05-.05.11.27.12.41-.06.08-.22,1.09-.2,1.17-.05.86.11,1.36.16.77-.2.2-.6,1.91-.67-.21.25-.02.41-.81.63.77.06,1.15.17,2.18.2.83-.04.85-.19,1.9-.2.28.05.26.15.82.16.07-.11.8-.12,1.36-.16.23.34,2.18.42,3.26.63,3.19-.1,4.83-.35,8.16-.08.03-.21.51-.37,2.45-.4.54.03-.07.22.54.24.52-.04.95-.1,1.64-.12v.16c2.08.04,3.04-.42,4.62-.2-.09-.38,2.29-.41,4.08-.51,1.02.19,2.62.06,4.08.2.51-.05.19-.21,1.37-.16.52.15,2.05.15,2.17.36.82-.05,2.08-.04,3.26-.04.24.08.42.18.82.24,1.71-.1,2.03.05,3.26-.12-.13.12.38.15.53.24.93-.14,1.92.06,3.27.08-.39.06-.39.26,0,.32,2.29-.06,2.74.06,4.9,0-.2.17.69.3,1.09.16.39.16.73.32,1.91.36.69-.04.62-.2,1.37-.24.53.02.21.15,1.08.12,3.45-.09,6.6.05,9.79.08.98-.35,2.52-.12,5.18-.24.71.03.57.18,1.35.2,1.1-.13,3.23-.21,4.63-.08.05-.06-.1-.15.27-.16,1.42.26,4.42.05,6.26.24.69-.33,3.03.01,4.36-.16,1.62.29,2.71.11,5.18.16,3.06-.27,6.27-.16,10.34-.2.26.11,1.48.08,1.09.28.88-.08,1.14-.25,2.17-.32,1.73.2,3.79-.03,5.17.16.75-.08,1.33-.18,2.17-.24.16.2.96.11,2.18.16,1.45.06,2.31.21,2.99.2,1.36-.02,2.15-.34,3.82-.39,2.47-.08,3.87.12,5.71-.08v.16c2.87-.09,5.78-.1,6.8.2,2.85-.49,6.68.03,10.61-.4.6.03.61.15,1.36.16.18-.29,1.62.02,2.18.04,1.49-.13,2.99-.11,4.09-.24-.28.19.44.22.81.32,3.05-.35,5.84.05,9.25-.24.31.05.31.14.27.24,1.08-.08,1.64-.23,2.99-.28,1.44.18,4.54,0,5.17.24.44-.03-.05-.19.82-.16.52.02.22.15,1.09.12,5.13-.25,13.88-.08,19.32-.08.54.01.54-.05.81-.08.61.03.6.15,1.37.16.46-.02.44-.12.81-.16,5.32.11,9.19-.11,13.6.08,2.03-.12,7.57-.12,8.71,0,1.51-.16,4.55-.16,6.26.08.73-.05.82-.2,1.91-.2,1.24.1,2.38.21,3.53.32.43-.02.24-.12,1.09-.08,1.07.07,1.08.27,1.64.32.44.02,1.9-.09,2.71.04.22-.09.55-.16,1.36-.16,1.04.03,1,.22,1.37.36,1.4.06,1.35-.09,2.17-.12,2.52-.01,2.82.3,5.17.32,1.01-.01.98-.17,2.44-.12.15.12-.63.16.28.2.55-.08,1.41-.11,2.17-.16,1.14.17,3.54.5,5.45.2.66.08.58.06,1.63.04-.09.09.05.15.27.2,1.8-.05,1.41-.43,4.09-.35-.14.22.3.52-.28.67,1.16.01,1.18-.14,1.91-.2,0,.12.58.15.82.24,3.69-.02,4.1-.51,6.8-.67,0,.16-.55.24-.55.39,4.59-.25,6.38-.92,10.35-1.26.89.02.39.15.27.24.96,0,.53-.19,1.63-.16-.04.1.13.16.55.2.26-.17,1.53-.2,1.9-.36.46.05.54.16,1.09.2,2.77-.04,3.64.11,7.07.08.79.25.18.47,1.63.59,1.07.02.69-.16,1.36-.2.64,0,.8.07,1.63.04.83-.08,1.16-.23,2.18-.28,1.66.05,2.16.22,3.81.08.83.17.77.35.26.59.87-.03,1.11-.16,2.18-.16.39.05.18.19.55.24,2.44-.06,2.49-.48,5.17-.59.81.15-.15.36.55.55,2.24-.14,4.08-.33,5.44-.59.99.02,1.01.03,1.9.12-.05-.16.5-.24,1.64-.24-.01.09.46.12.27.24,1.84,0,2.25.2,3.26.32.24-.15,1.15-.2,2.45-.2v.16c3.29.03,3.45.41,4.63.67,2.04-.18,3.53-.07,5.44-.16.66.11-.3.22,0,.39,1.98-.12,2.55-.45,4.36-.59-.27.14,1.23.03,1.08.16-.05.15-.85.19-1.08.32.75.04,2.01.15,1.08.32,10.44-.04,12.95-1.23,17.43-2.13,1.67-.08,2.85-.05,5.16-.08.92.09,1.79.19,2.72.28.36-.1,1.21-.08,1.91-.04.47-.05.01-.23.82-.24,2.63.22,4.61.29,7.07.55.96.02.67-.14,1.64-.12.13.12-.65.16.27.2.24-.06.22-.15,1.09-.12.45.07.22.23.27.36,3.97-.1,4.42.38,8.43.16,0,.11-.15.23.55.24.62-.22.83-.48,2.45-.63.4.13.42.31,1.09.39,1.02.04.43-.15,1.36-.12.4.18,1.61.24,2.45.36,1.67-.17,2.05-.52,4.35-.59-.21.09-.54.27,0,.35,1.62-.12,2.41-.36,3.54-.55,2.28,0,2.44.14,4.07.28,1.17-.14,2.16,0,3.54.04.05.17.74.23.81.4,1.16-.03,3.13-.03,3.27.2,2.15-.03,3.23-.22,4.89-.32.16.07.14.16.55.2,1.18-.09.82-.41,2.18-.47.44.08,1.66.05,2.17.12.16.08-.34.26.28.28.47-.06,1.45-.05,2.17-.08.43.03-.06.19.81.16.02-.22.86-.12,1.63-.08.29-.22-1.05-.31-1.09-.47-.05-.3,1.92-.44,2.18-.75,2.77.34-.83.8,1.36,1.11.76-.08,1.1-.28.54-.44.4-.46,2.29-.69,3.27-1.07,1.72.05,1.21-.22,2.73-.2.05.03.22.05.54.04-.05.35.8.69,1.64.79.81-.08,1.41.07,2.44.16.59-.16.52-.31.28-.51,1.48.31,3.1-.15,4.35-.24.6.06,1.27.1,1.08.28,1.95-.08,3.47-.07,4.9-.32.91.19,2.21.09,3.27.28.36-.21,1.6-.29,2.71-.4.91.13,1.34.33,2.18.47.02-.14.75-.35,1.36-.51.63-.01.3.11.81.12-.15-.25-.37-.53,1.09-.63,1.77.06,2.29.3,3.26.47.16-.09,1.03-.09,1.63-.12.43-.19.5-.43,1.09-.59,2.21-.02,2.74-.19,4.89-.08,1.57-.27,4.48-.17,6.8-.08-.01-.07.21-.1.54-.12,10.93-.05,20.15-.24,32.66-.24.62,0,1.05.24,1.63.12-.57-.01.28-.14.81-.12,2.17.08,3.39.13,5.45.12.58.24-.24.47.54.71,1.11-.04,1.89-.12,2.17-.28,0-.1-.86-.08-.81-.2.63.01.3-.11.81-.12,1.34.24-.32.45,1.09.63.65-.29.69-.49,1.64-.67.84.15.73-.04,1.9-.04.62.15.89.34,1.36.51.86-.36,3.4,0,4.36.12,2.08-.04,3.2-.23,5.71-.04.53-.02.02-.18,1.09-.12.16.18-.53.44,0,.63.18-.25,2.25-.23,2.18-.51,1.08-.05.66.12,1.36.12.4-.09.9-.16,1.63-.2.55.26,1.41.24,2.18.47.31-.35,2.23-.47,3.81-.63.38.06.94.1,1.63.12,4.85-.16,10.04.03,16.06-.08.2.13.57.23,1.63.24.78-.05.62-.23,1.36-.28.92.11,4.14,0,5.18.08-.19.3,1.39.35,1.9.55,1.91-.03,2.66-.43,4.62-.32ZM25.58,168.86c-.28-.13.84-.06,1.36-.08.04.12-1.11.12-1.36.08ZM788.06,170.68c-.08-.1.1-.17.81-.16.08.1-.1.17-.81.16ZM833.22,170.21c.61.02.22.21,0,.24-1.14-.05,0-.13,0-.24ZM917.85,170.68c-.07-.09.07-.15.54-.16,1.17.12,1.51.36,1.91.59-1.6-.03-.69-.43-2.46-.43ZM922.75,169.49c2.32.09,1.75.56,0,.67-.52-.21.22-.39,0-.67ZM942.34,169.97c.15-.06-.32-.2.28-.2,1.03-.03.59.26-.28.2ZM943.7,169.73v-.2c.56-.03,1.08-.12,1.64-.04-.02.11-.63.19-1.09.12.09.08-.06.12-.54.12ZM995.14,169.57c-.59,0-.13-.14-.28-.2.49,0,.57.05,1.09.04-.11.08-1.06.03-.81.16Z"/>
        <path class="cls-1" d="M459.34,172.93c1.12.19-.96.26-.28.32-.8.06-.54-.28.28-.32Z"/>
        <path class="cls-1" d="M817.71,171.67c-.57.02-.71-.03-1.08-.04,1.64-.17,1.29-.5,1.63-.79,1.23.28-.42.52-.55.83Z"/>
        <path class="cls-1" d="M936.63,170.84c-.41.09-.67.06-1.37.04,1.12-.29-1.37-.3-1.09-.59.71-.16,2.9.09,3.27-.16.34.2-3.22.52-.81.71Z"/>
      </g>
    </g>
  </g>
</svg>