<?xml version="1.0" encoding="UTF-8"?>
<svg id="Camada_2" data-name="Camada 2" xmlns="http://www.w3.org/2000/svg" viewBox="0 0 1071.71 1030.7">
  <defs>
    <style>
      .cls-1 {
        fill: #fff;
      }
    </style>
  </defs>
  <g id="Layer_1" data-name="Layer 1">
    <g>
      <g>
        <path class="cls-1" d="M252.81,443.18l2.11-5.8c2.11-5.09,3.51-11.77,3.51-17.21v-82.91c-3.69,1.05-6.68,3.16-9.13,5.8l-18.44,20.73c-1.76,1.93-4.92,3.34-7.55,3.34-2.81,0-4.39-1.76-4.22-4.39l2.46-24.77c.53-5.44,4.39-8.96,9.84-8.96h86.77c5.27,0,9.13,3.51,9.66,8.96l2.46,24.77c.18,2.64-1.41,4.39-4.22,4.39-2.63,0-5.8-1.23-7.55-3.34l-18.44-20.73c-2.11-2.81-5.45-4.74-8.96-5.8v82.91c0,5.45,1.41,12.12,3.34,17.21l2.11,5.8c1.23,2.46,1.93,5.97,1.93,8.61,0,2.81-1.93,5.09-4.39,5.62-6.32,1.58-13,2.11-19.32,2.11s-13.17-.53-19.5-2.11c-2.46-.53-4.22-2.81-4.22-5.62,0-2.63.7-6.15,1.76-8.61Z"/>
        <path class="cls-1" d="M398.24,325.32c37.94,0,64.11,26.52,64.11,68.5s-25.29,66.22-63.06,66.22-64.29-25.12-64.29-66.92,25.47-67.8,63.23-67.8ZM398.59,452.49c18.44,0,31.09-21.08,31.09-59.72s-12.47-60.07-30.91-60.07-30.74,23.01-30.74,60.95,11.94,58.84,30.56,58.84Z"/>
        <path class="cls-1" d="M484.83,420.17c0,5.45,1.23,12.12,3.34,17.21l2.28,5.8c.88,2.46,1.58,5.97,1.58,8.61,0,6.15-6.15,6.68-10.72,6.68-2.28,0-4.57-.18-6.85-.88-2.46-.53-4.22-2.81-4.22-5.8,0-2.63.7-6.15,1.58-8.61l2.46-5.8c1.93-5.09,3.16-11.77,3.16-17.21v-54.98c0-5.44-1.23-12.12-3.16-17.21l-2.46-5.44c-.88-2.63-1.58-6.32-1.58-8.96,0-2.81,1.76-4.57,4.57-4.57h28.81c5.27,0,10.19,3.34,11.94,8.43l24.24,65.52c.88,2.64,1.93,3.86,3.16,3.86,1.05,0,2.28-1.23,3.16-3.51l25.12-65.87c1.76-5.09,6.68-8.43,11.94-8.43h27.23c2.63,0,4.39,1.76,4.39,4.57,0,2.63-.7,6.32-1.58,8.96l-2.28,5.44c-2.11,5.09-3.34,11.77-3.34,17.21v54.98c0,5.45,1.23,12.12,3.34,17.21l2.28,5.8c.88,2.46,1.58,5.97,1.58,8.61,0,2.81-1.76,5.09-4.22,5.62-5.97,1.41-12.65,2.11-19.32,2.11s-13.35-.7-19.32-2.11c-2.63-.53-4.39-2.81-4.39-5.62,0-2.63.7-6.15,1.58-8.61l2.46-5.8c1.93-5.09,3.34-11.77,3.34-17.21v-63.23c0-2.81-.35-4.22-1.05-4.22-.53,0-1.23,1.23-2.11,3.69l-36.53,95.73c-.88,2.63-3.51,4.22-6.15,4.22-2.81,0-5.09-1.58-6.32-4.22l-34.78-95.2c-.88-2.28-1.76-3.34-2.28-3.34s-.88,1.41-.88,4.22v62.36Z"/>
        <path class="cls-1" d="M726.51,420.88c2.11,4.92,5.62,10.89,9.13,15.11l6.32,7.73c1.93,2.11,2.99,5.44,2.99,8.08,0,2.81-1.93,5.09-4.39,5.62-6.32,1.41-13.53,2.11-20.73,2.11s-14.23-.7-20.55-2.11c-2.63-.53-4.39-2.81-4.39-5.62v-9.13l-.18-4.74c0-3.16-.7-7.03-1.58-10.71h-49.36c-1.06,3.69-1.58,7.55-1.76,10.71l-.18,4.74c-.35,2.81-.35,6.5-.35,9.13,0,6.32-6.32,6.85-11.07,6.85s-11.42-.53-11.42-6.85c0-2.63,1.05-5.97,2.99-8.08l6.5-7.73c3.51-4.22,7.2-10.19,9.49-15.11l38.64-88.35c1.05-2.11,3.16-3.51,5.27-3.51h2.11c2.28,0,4.39,1.41,5.27,3.51l37.24,88.35ZM681.73,420c5.27,0,7.55-3.34,5.44-8.26l-14.75-35.31c-1.05-2.46-2.28-3.69-3.51-3.69s-2.46,1.23-3.51,3.69l-15.46,35.31c-2.11,4.92-.18,8.26,5.27,8.26h26.52ZM679.09,307.06c-2.81,2.28-6.85,2.81-10.01,1.76-3.34-1.05-4.22-3.69-2.46-6.5l14.75-21.78c1.05-1.58,2.63-2.28,4.22-2.28,1.23,0,2.46.35,3.51,1.41l7.38,6.5c2.46,2.46,2.28,5.27-.35,7.38l-17.04,13.53Z"/>
        <path class="cls-1" d="M752.33,358.87c0-20.02,16.86-33.55,42.15-33.55,28.28,0,46.9,16.69,46.9,33.2,0,9.49-6.15,14.58-13.17,14.58-8.61,0-18.44-7.55-20.73-23.89-.53-4.04-2.99-16.16-13.7-16.16-7.38,0-12.82,5.97-12.82,13.52,0,25.82,63.06,38.29,63.06,78.52,0,20.38-16.34,34.95-44.97,34.95-31.44,0-51.29-17.74-51.29-35.13,0-10.19,6.5-15.63,14.05-15.63,9.13,0,19.5,7.9,21.96,25.29.7,4.39,3.16,17.21,17.56,17.21,9.49,0,13.88-5.62,13.88-13.52,0-29.16-62.88-41.28-62.88-79.39Z"/>
        <path class="cls-1" d="M191.77,536.09c37.94,0,64.11,26.52,64.11,68.5s-25.29,66.22-63.06,66.22-64.29-25.12-64.29-66.92,25.47-67.8,63.23-67.8ZM192.12,663.26c18.44,0,31.09-21.08,31.09-59.72s-12.47-60.07-30.91-60.07-30.74,23.01-30.74,60.95,11.94,58.84,30.56,58.84Z"/>
        <path class="cls-1" d="M315.78,659.93c5.27,0,11.07-2.81,14.4-7.2l15.46-20.2c1.58-2.11,4.57-3.69,7.38-3.69,2.63,0,4.22,1.93,4.04,4.57l-2.28,24.77c-.53,5.45-4.57,8.96-9.84,8.96h-76.58c-2.81,0-4.57-1.76-4.57-4.39,0-2.81.7-6.32,1.58-8.96l2.46-5.62c1.93-4.92,3.16-11.77,3.16-17.21v-54.98c0-5.44-1.23-12.12-3.16-17.21l-2.46-5.62c-.88-2.63-1.58-6.15-1.58-8.61v-.18c0-2.81,1.76-5.09,4.39-5.62,5.97-1.41,12.65-2.11,19.32-2.11s13.17.7,19.15,2.11c2.63.53,4.39,2.81,4.39,5.8,0,2.46-.7,5.97-1.58,8.61l-2.11,5.45c-2.28,5.09-3.51,12.12-3.51,17.57v74.83c0,5.44,3.69,8.96,8.96,8.96h2.99Z"/>
        <path class="cls-1" d="M364.43,653.96l2.46-5.8c1.93-5.09,3.16-11.77,3.16-17.21v-54.98c0-5.44-1.23-12.12-3.16-17.21l-2.46-5.44c-.88-2.63-1.58-6.32-1.58-8.96,0-2.81,1.76-5.09,4.39-5.62,5.97-1.41,12.65-2.11,19.32-2.11s13.17.7,19.15,2.11c2.63.53,4.39,2.81,4.39,5.62,0,2.63-.7,6.32-1.58,8.96l-2.28,5.44c-2.11,5.09-3.34,11.77-3.34,17.21v54.98c0,5.45,1.23,12.12,3.34,17.21l2.28,5.8c.88,2.46,1.58,5.97,1.58,8.61,0,2.81-1.76,5.09-4.39,5.62-5.97,1.41-12.65,2.11-19.15,2.11s-13.35-.7-19.32-2.11c-2.63-.53-4.39-2.81-4.39-5.62,0-2.63.7-6.15,1.58-8.61Z"/>
        <path class="cls-1" d="M513.55,575.26c2.11-4.92,3.69-11.77,3.86-17.04l.18-4.74c.18-2.81.18-6.5.18-9.13,0-6.15,6.68-6.67,11.42-6.67s11.24.53,11.24,6.67c0,2.63-1.05,5.97-2.99,7.9l-6.5,7.9c-3.51,4.22-7.38,10.19-9.31,15.11l-38.29,87.47c-1.41,2.63-3.86,4.39-7.03,4.39-2.63,0-5.44-1.76-6.5-4.39l-36.89-87.47c-2.11-4.92-5.62-10.89-9.13-15.11l-6.32-7.9c-1.93-1.93-2.99-5.27-2.99-7.9,0-2.81,1.76-5.09,4.39-5.62,6.5-1.41,13.52-2.11,20.73-2.11s14.23.7,20.55,2.11c2.63.53,4.39,2.81,4.39,5.62,0,2.63,0,6.32.18,9.13v4.74c.18,5.27,1.58,12.12,3.69,17.04l18.62,44.44c1.06,2.46,2.28,3.69,3.51,3.69s2.63-1.23,3.69-3.69l19.32-44.44Z"/>
        <path class="cls-1" d="M595.4,546.98c-6.5,0-10.89,4.39-10.89,11.07v37.76c0,2.28,1.58,4.04,4.04,4.04h.7c5.45,0,11.07-2.99,14.4-7.2l2.63-3.69c1.76-2.28,4.57-3.69,7.38-3.69,2.63,0,4.92,1.76,5.62,4.39l6.85,27.58c.7,2.63-.7,4.39-3.51,4.39-2.63,0-5.97-1.05-8.08-2.81l-9.13-6.5c-4.39-2.99-10.71-5.27-16.16-5.27h-.7c-2.46,0-4.04,1.58-4.04,4.04v37.76c0,6.67,4.39,11.07,10.89,11.07h1.05c5.27,0,11.07-2.99,14.4-7.2l15.46-20.2c1.58-2.11,4.57-3.69,7.38-3.69,2.63,0,4.22,1.93,4.04,4.57l-2.28,24.77c-.53,5.27-4.57,8.96-9.84,8.96h-76.58c-2.81,0-4.57-1.76-4.57-4.57,0-2.63.7-6.15,1.58-8.61l2.46-5.8c1.93-5.09,3.16-11.77,3.16-17.21v-54.98c0-5.44-1.23-12.12-3.16-17.21l-2.46-5.44c-.88-2.63-1.58-6.32-1.58-8.96,0-2.81,1.76-4.57,4.57-4.57h76.58c5.27,0,9.31,3.51,9.84,8.96l2.28,24.77c.18,2.64-1.41,4.39-4.04,4.39-2.81,0-5.8-1.41-7.38-3.51l-15.46-20.2c-3.34-4.22-9.13-7.2-14.4-7.2h-1.05Z"/>
        <path class="cls-1" d="M649.49,653.96l2.46-5.8c1.93-5.09,3.16-11.77,3.16-17.21v-54.98c0-5.44-1.23-12.12-3.16-17.21l-2.46-5.44c-.88-2.63-1.58-6.32-1.58-8.96,0-2.81,1.76-5.09,4.39-5.62,5.97-1.41,12.65-2.11,19.32-2.11s13.17.7,19.15,2.11c2.63.53,4.39,2.81,4.39,5.62,0,2.63-.7,6.32-1.58,8.96l-2.28,5.44c-2.11,5.09-3.34,11.77-3.34,17.21v54.98c0,5.45,1.23,12.12,3.34,17.21l2.28,5.8c.88,2.46,1.58,5.97,1.58,8.61,0,2.81-1.76,5.09-4.39,5.62-5.97,1.41-12.65,2.11-19.15,2.11s-13.35-.7-19.32-2.11c-2.63-.53-4.39-2.81-4.39-5.62,0-2.63.7-6.15,1.58-8.61Z"/>
        <path class="cls-1" d="M745.22,630.94c0,5.27,1.23,12.12,3.34,17.04l2.28,5.8c.88,2.63,1.58,6.15,1.58,8.78,0,2.81-1.93,3.69-4.57,4.57-5.62,2.11-12.47,3.16-19.15,3.16s-13.17-1.05-18.97-3.16c-2.63-.88-4.57-1.76-4.57-4.57,0-2.63.7-6.32,1.58-8.96l2.46-5.62c1.93-4.92,3.16-11.77,3.16-17.04v-54.98c0-5.27-1.23-12.12-3.16-17.04l-2.46-5.62c-.88-2.63-1.58-6.32-1.58-8.96,0-2.81,1.76-4.57,4.57-4.57h66.75c20.02,0,33.37,13.35,33.37,31.79s-13.88,30.39-34.6,34.43c20.73,1.05,30.91,15.28,30.91,30.04v13c0,5.45,3.51,8.96,8.78,8.96h.35v9.13c-7.9,3.69-14.4,3.69-14.4,3.69-20.2,0-27.58-10.89-27.58-22.13v-15.28c0-9.13-4.04-17.39-11.24-22.13-1.93-1.23-3.69-1.76-5.62-1.76-5.97,0-11.24,5.97-11.24,14.93v6.5ZM745.22,599.85h5.62c15.81,0,26.17-10.36,26.17-26.35,0-10.54-4.57-18.79-12.12-23.19-1.93-1.05-3.87-1.58-5.8-1.58-7.38,0-13.88,7.55-13.88,18.09v33.02Z"/>
        <path class="cls-1" d="M924.72,631.65c2.11,4.92,5.62,10.89,9.13,15.11l6.32,7.73c1.93,2.11,2.99,5.44,2.99,8.08,0,2.81-1.93,5.09-4.39,5.62-6.32,1.41-13.53,2.11-20.73,2.11s-14.23-.7-20.55-2.11c-2.63-.53-4.39-2.81-4.39-5.62v-9.13l-.18-4.74c0-3.16-.7-7.03-1.58-10.71h-49.36c-1.06,3.69-1.58,7.55-1.76,10.71l-.18,4.74c-.35,2.81-.35,6.5-.35,9.13,0,6.32-6.32,6.85-11.07,6.85s-11.42-.53-11.42-6.85c0-2.63,1.05-5.97,2.99-8.08l6.5-7.73c3.51-4.22,7.2-10.19,9.49-15.11l38.64-88.35c1.05-2.11,3.16-3.51,5.27-3.51h2.11c2.28,0,4.39,1.41,5.27,3.51l37.24,88.35ZM879.93,630.77c5.27,0,7.55-3.34,5.45-8.26l-14.75-35.31c-1.05-2.46-2.28-3.69-3.51-3.69s-2.46,1.23-3.51,3.69l-15.46,35.31c-2.11,4.92-.18,8.26,5.27,8.26h26.52Z"/>
      </g>
      <path class="cls-1" d="M528.89,1025.32c-1.19.34-2.57.99-3.98,1.09-7.18.54-14.53.13-21.51,1.59-8.59,1.79-17.1.54-25.61,1.16-2.02.15-4.65,1.6-5.87.78-2.5-1.69-3.95-.1-5.88.48-1.02.31-2.38.42-3.3,0-4.18-1.92-8.56-1.08-12.87-1.29-2.55-.12-4.74-1.8-7.5-1.42-2.27.31-4.83.74-6.8-1.25-4.88.09-9.78-.08-14.61.46-1.09.12-1.67-.29-2.39-.29-2.84,0-5.14-2.19-8.14-1.56-5.73,1.21-10.84-1.7-16.21-2.86-.78-.17-1.45-.98-2.22-1.07-4.49-.53-9.01-.86-13.5-1.42-1.63-.2-3.18-1.01-4.82-1.26-1.68-.26-3.24.02-4.92-1.22-1.15-.85-3.44-.16-5.17-.16-4.25-4.06-9.51-2.26-14.8-2.77-1.95-3.32-6.53-1.4-9.3-3.9-5.65.21-10.46-2.81-15.73-4.09-2.39-.58-4.61-2.24-6.99-2.43-6.04-.5-10.94-3.86-16.38-5.84-2.32-.84-4.47-2.17-7.49-3.68-2.51.16-5.65-1.01-8.59-2.76-5.9-3.5-12.52-5.68-17.98-10.03-1.55-1.23-3.74-1.65-6.44-2.77-1.47-3.34-6.12-3.6-9.46-5.79-5.04-3.31-9.29-7.98-15.43-9.58-1.25-.33-.28-3.07-2.8-2.84-.83.07-1.11-1.93-2.64-2.8-5.82-3.31-11.24-7.33-15.63-12.56-.76-.9-2.18-1.21-3.17-1.95-1.95-1.45-4.34-2.15-5.35-5.04-.58-1.66-3.37-2.44-4.89-3.9-2.17-2.08-4.75-3.9-5.72-6.99-3.63-.67-5-4.11-7.46-6.2-2.38-2.02-4.84-4.12-6.59-6.64-4.71-6.76-10.79-12.29-16.03-18.56-2.57-3.07-4.96-6.23-6.84-9.78-1.47-2.79-3.2-5.44-5.36-9.07,0,.34,0-.54,0-1.4-.81-.81-1.6-1.6-2.54-2.54.33-.42.67-.85,1.32-1.69-1.38-2.87-2.88-5.99-4.37-9.12-.1.11-.2.22-.3.33-1.86-2.16-4.53-4.05-5.39-6.56-1.42-4.18-4.77-6.83-6.93-10.39-2.6-4.29-5.33-8.44-7.48-13.01-1.06-2.27-2.99-4.16-4.66-6.1-3.24-3.76-7.64-6.52-9.5-10.9.48-1.49.87-2.66,1.25-3.84-.54-.64-.92-1.16-1.37-1.61-5.18-5.15-9.83-10.63-12.34-17.67-1.69-4.77-4.91-8.7-7.58-12.93-2.58-4.09-5.35-8.06-8.02-12.09-.22-.33-.33-.77-.39-1.17-.6-4.29-2.74-7.84-5.34-11.32v-4.8c-3.95-6.08-8.66-11.32-9.46-18.63-.1-.97-.64-2.07-1.33-2.77-3.48-3.53-4.56-8.45-7.5-12.37-2.67-3.56-3.78-8.24-5.57-12.38-2.32-5.36-5.5-10.21-7.89-15.48-1.54-3.41-2.68-7.09-5.6-9.76-.72-.65-1.36-1.79-1.39-2.72-.17-5.24-4.25-8.55-6.43-12.74-1.28-2.45-1.5-5.32-3.18-7.39-1.72-2.13-2.71-4.28-2.62-7,.02-.57-.24-1.34-.65-1.71-2.33-2.12-2.58-5.22-3.93-7.75-1.27-2.4-3.26-4.26-3.56-7.29-.15-1.49-1.46-3.03-2.59-4.22-2.11-2.23-1.46-4.21.02-6.03-2.65-5.18-5.45-10.01-6.72-15.57-1.43-6.27-2.73-12.61-5.34-18.55-.25-.57-.78-1.03-1.24-1.61-.02-.32-.05-.76-.08-1.19-.45-8.08-.78-16.16-1.41-24.23-.18-2.27-1.5-4.33-1.37-6.83.11-2.05,1.17-4.46-.91-6.27,2.73-1.99-.72-4.61.8-7.03,1.09-1.74.11-4.25-.94-6.34.45-1.22,1.09-2.17,1.11-3.14.11-4.91.34-9.84-.01-14.73-.72-10.16,1.41-20.15,1.46-30.26.01-2.27.59-4.62,1.33-6.8,1.58-4.66,2.46-9.38,2.72-14.31.16-2.94,1.51-5.72,1.34-8.83-.17-3.15,1.36-6.07,2.25-9.07.84-2.8.63-6.14,2.11-8.47,1.76-2.77-.52-6.26,2.25-8.49-.72-2.46,1.68-3.27,2.57-4.87-.32-.32-.97-.78-.9-.93,3-6.78,2.97-14.55,6.94-21.01,1.95-3.18,1.2-7.64,4.75-10.09-.53-4,1.48-7.46,2.86-10.87,1.46-3.6,1.67-7.95,4.52-10.05.81-2.67,1.27-4.73,2.06-6.65,1.49-3.63,2.62-7.58,4.91-10.64,2.53-3.39,2.82-7.37,4.31-10.99,1.48-3.61,3.35-7.05,4.32-10.97.97-3.93,3.15-7.64,5.23-11.19,3.6-6.15,4.18-13.45,8.06-20.57.34-1.44-.28-3.94,1.1-6.48,1.35-2.5,1.92-5.6,1.58-8.74-.27-2.44,3.18-12.96,4.63-15.46.11-.19.45-.32.45-.48-.15-5.63,3.55-9.33,6.65-13.33.44-6.33,6.05-10.42,7.1-16.48,3.65-2.66,2.63-8.15,6.52-10.74.74-.49,1.2-1.76,1.34-2.74,1.1-7.62,6.09-13.58,8.65-20.54,3-8.19,9.11-14.46,12.87-22.14,4.67-3.39,7.11-8.73,11.08-12.82,4.84-4.99,9.37-10.36,14.37-15.24,2.15-2.1,4.61-3.87,7-5.7,2.4-1.84,3.64-5.08,7-5.73.44-3.88,4.88-2.3,6.67-4.97,1.67-2.48,4.96-3.87,7.53-5.75,2.4-1.75,4.68-3.7,7.22-5.23,3.48-2.09,6.88-4.27,9.75-7.16,2.62-2.64,6.09-4.38,7.94-7.86,1.15-2.16,3.51-3.63,5.28-4.88,2.16-1.52,3.82-3.48,5.88-5.01,2.07-1.53,3.14-4.21,6.05-4.84.8-.17,1.54-1.5,1.96-2.45,1.57-3.59,5.71-4.77,7.48-8.13,2.97-.39,4.1-3.13,6.03-4.82,3.06-2.68,5.94-5.37,9.6-7.49,3.76-2.18,7.52-4.91,10.8-7.8,4.11-3.61,9.02-5.35,13.64-7.72,1.62-.83,3.42-1.24,5.03-2.44,1.95-1.44,4.4-2.23,6.68-3.21,2.46-1.07,5.28-1.6,7.37-3.15,2.45-1.83,5.19-2.62,7.8-3.88,5.39-2.61,10.84-5.19,16.1-8.02,5.11-2.75,10.88-4.38,15.31-8.36,3.09-.11,4.99-2.84,7.94-3.53,2.54-.6,4.69-2.83,7.23-3.48,7.06-1.79,13.19-6.14,20.48-7.2,2.16-2.51,5.05-.6,8.14-1.61,1.76-.92,4.15-2.17,6.42-3.36,3.65-.56,7.63-.35,10.71-1.9,2.45-1.24,5.05-.03,6.81-1.31,2.13-1.55,4.2-.8,6.28-1.11,2.94-.44,5.87-.98,8.83-1.31,2.75-.3,5.41-.01,8.23-1.17,2.82-1.16,6.5.71,9.41-1.53,5.25.48,10.21-1.81,15.53-1.43,9.43.67,18.76-2.16,28.25-1.32.9.08,1.89-.75,3.06-1.26,1.67.21,3.31,2.79,5.6.62.53-.5,1.58-.61,2.39-.6,2.77.03,5.52-.4,8.21,1.22,2.13,1.28,4.42-3.36,7.12-.35.33.37,2.13-.91,3.21-.84,6.26.43,12.51.97,18.75,1.65.63.07.89.85,1.97.25,1.21-.68,3.59-1.15,4.29-.48,2,1.92,4.19,1.07,6.27,1.16,3.79.16,7.6-.16,11.38.11,3.17.22,6.31-.7,9.6,1.09,2.65,1.43,6.37-.81,9.47,1.41,1.03.74,3.05.21,4.6.1,8.14-.58,16.16.97,24.23,1.28,8.25.32,16.52-.04,24.78.13,2.73.06,5.42.97,8.16,1.24,2.76.28,5.67-.59,8.17,1.35.28.22.87,0,1.32.03,5.84.44,11.69.89,17.53,1.33.66.05,1.51-.21,1.95.11,4.61,3.3,9.98,1.91,15,2.73,5.56.91,11.39,1.03,16.61,3.46,2.39,1.11,4.85.13,7.46,1.46,3.22,1.65,7.55,1.03,11.35,1.66,5.19.86,10.58,1.34,15.42,3.2,2.85,1.09,5.8,0,8.63,1.91,2.23,1.5,5.76,1,8.68,1.58,4.53.89,9.27,1.34,13.43,3.13,2.41,1.04,4.69.23,6.89,1.16,2.28.96,4.92,1.23,6.99,2.49,2.27,1.38,4.66.72,6.85,1.34,3.96,1.11,7.76,2.8,11.61,4.29.38.15.7.93.95.88,4.79-.92,8.52,2.15,12.67,3.48,3.9,1.24,8.22,1.7,11.47,4.62,6.62.28,11.87,5.18,18.53,5.47,1.13.05,2.22,1.06,3.31,1.64,3.13,1.67,5.95,3.99,9.88,3.74,1.09-.07,2.45.72,3.33,1.52,2.27,2.07,4.56,3.79,7.85,3.82.93,0,2.2.63,2.7,1.38,2.37,3.51,6.34,4.08,9.77,5.64,5.61,2.55,10.28,6.54,15.27,10,6.98,4.84,13.56,10.29,20.68,14.89,1.88,1.21,3.24,2.8,5,4.01,1.94,1.33,2.8,3.84,5.57,4.41,1.27.26,2.92,1.93,3.18,3.21.55,2.8,3.45,3.46,4.34,5.6.81,1.93,3.77.85,4.05,3.63.11,1.08,2.57,1.9,3.92,2.89.53.39,1.08.86,1.41,1.42,1.61,2.76,3.24,5.47,6.52,6.56.78,3.56,4.36,4.81,6.19,7.49,5.19,7.57,11.58,14.2,16.81,21.78,2.55,3.7,5.97,7.14,9.48,10.29,2.58,2.32,4.44,5.55,6.28,8.58,2.23,3.66,4.53,7.22,7.62,10.23,5.09,4.96,8.55,11.14,12.55,16.91.22.32.03.95.27,1.21,2.12,2.27,4.49,4.33,6.39,6.77,1.57,2.01,2.1,4.67,4.81,6.01,1.31.65,2.33,2.54,2.84,4.08,1.51,4.6,5.28,7.61,7.62,11.59.62,1.05.84,2.34,1.38,3.92,3.96,3.06,7.8,10.54,11.96,18.69,1.42,2.79,3.21,5.39,4.98,7.99,3.07,4.5,4.47,10.03,8.68,13.85.88.8,1.5,2.05,1.9,3.21,2.11,6.09,4.76,11.97,8.34,17.27,1.12,1.66.84,3.24,1.57,4.76,2.14,4.46,4.1,9.01,5.84,13.65,1.33,3.53,2.08,7.18,3.15,10.75,1,3.36,2.2,6.66,3.41,9.9,1.71,5.87,2.26,11.92,1.93,18.04,2.94,3.25.65,7.44,2.06,11.19,1.32,3.52.36,7.85.66,11.81.21,2.74.51,5.55,1.36,8.13,2.21,6.67.83,13.5,1.28,20.23.41,6.07.14,12.32,1.59,18.14.99,3.95.26,7.84,1.18,11.54,1.83,7.39.2,14.97,1.48,22.2,1.13,6.37,0,12.78,1.31,18.87,1.41,6.58.77,13.07,1.13,19.59-1.73,2.13,2.98,3.37.72,5.95-.79.9.75,3.69.01,4.82-1.17,1.79-.43,3.43-.72,5.1-.51,2.93-.94,5.88-1.35,8.82-.41,2.95.79,5.98-1.21,8.92-.83,1.22-.25,3.49-.12,5.26.34,4.37-1,8.41-2.1,12.53-.95,3.56-1.44,7.2.76,10.62-.99,2.69-2.36,5.17-2.95,8.18-.71,3.65-.38,7.39-1.27,10.84-.89,3.43-.13,7.18-1.36,10.13-3.04,7.33-1.3,15.62-5.16,22.65.95,6.38-1.96,12.22-2.99,18.26-1.41,8.22-1.72,16.71-4.89,24.69-1.38,3.47-.79,7.66-1.56,11.43-.91,4.48-2.36,8.84-3.5,13.27-1.97,7.67-4.06,15.33-5.75,23.06-.94,4.31-3.28,8.03-4.38,12.29-.72,2.77-2.17,5.33-2.48,8.35-.25,2.45-3.26,3.81-3.12,6.76.08,1.61-.73,3.27-1.2,5.16-.53.3-1.84.58-2.2,1.32-.8,1.66-1.07,3.57-1.65,5.34-1.97,5.97-6.05,10.85-8.53,16.56-4.48,10.31-11.04,19.52-15.96,29.58-3.04,6.2-7.67,11.43-10.13,17.9-6.78,5.59-9,14.23-14.03,21.03-2.51,3.4-3.54,7.87-5.37,11.8-1.48,3.19-3.53,6.16-4.61,9.47-1.11,3.38-3.79,6.03-4.13,9.69-3.96,3.95-4.79,9.76-8.27,14-.51.62-.7,1.5-1.12,2.21-4.12,6.95-8.5,13.68-14.01,19.68-3.76,4.1-7.03,8.66-10.46,13.06-1.37,1.75-1.74,4.45-4.67,4.68-.34.03-.77.54-.93.92-3.18,7.48-10.66,11-15.62,16.84-1.98,2.34-3.84,4.79-6.43,6.69-2.67,1.95-4.72,4.73-7.2,6.98-2.06,1.87-4.32,3.52-6.53,5.23-2.03,1.57-3.98,3.33-5.9,4.95-4.28,3.63-8.48,7.28-13.28,10.21-8.02,4.89-15.92,10.01-24.14,14.55-2.42,1.34-4.91,2.37-6.89,4.38-.56.57-1.39.94-2.16,1.21-6.51,2.3-11.97,6.6-18.22,9.39-8.12,3.63-16.8,5.75-24.95,9.32-5.9-.62-11.07,3.21-16.95,2.76-.65-.05-1.67-.21-1.92.12-2.19,2.97-6.36-.79-8.19,3-1.02-.64-1.73-1.09-2.48-1.56-2.12.36-4.36.86-6.63,1.08-2.83.27-6.17-.56-8.41.67-2.64,1.45-5.44-.3-8.07,1.82-1.83,1.48-5.25-.19-8.08,1.37-2.23,1.23-5.37-.31-8.14,1.38-2.04,1.24-5.25-1-7.45,1.36-1.53-1.62-3.54-1.11-5.42-1.23-3.05-.19-5.61,2-8.84,1.45-2.82-.48-6.12-.91-8.61.11-3.03,1.25-6.43.16-9.16,2.16-.46.33-1.25.34-1.87.29-4.8-.41-9.37.59-13.88,2.08-.4.13-.97-.06-1.41-.23-2.8-1.07-5.34-.49-7.97.8-3.83,1.89-8.1,2.44-12.27,2.64-6.46.31-12.95.08-19.42.08-2.01,0-4.39-.67-5.92.19-1.55.87-3.04-.09-4.61.94-1.27.83-3.91.95-5.24-1-1.9.42-3.72,1.06-5.57,1.15-1.64.08-3.6.86-4.91-1.02-1.51,1.62-3.67-.11-4.53.36-1.8.97-3.43.56-5.1.69-2,.16-4.02.04-6.03.04h-10.72c-2.01,0-4.03.14-6.02-.05-1.44-.14-2.84,2.07-4.25.05-5.05,3.24-11.19-.52-16.37,2.58-1.15.69-3.08-.01-4.63.13-1.88.17-3.78-.56-5.65,1.08-.74.65-3.07-.53-4.79-.9ZM140.51,162.26c.45-.45.89-.89,1.2-1.46l.26.26,1.09-.93-.42-.42c-.31.36-.62.73-.79,1.22-.45.45-.89.89-1.2,1.46l-.26-.26c-.36.31-.73.62-1.09.93l.42.42c.31-.36.62-.73.79-1.22ZM892.28,121.92c-.09.09-.17.17-.26.26.31.36.62.73.93,1.09.14-.14.28-.28.42-.42-.36-.31-.73-.62-1.34-.65.09-.09.17-.17.26-.26-.31-.36-.62-.73-.93-1.09l-.42.42c.36.31.73.62,1.34.65ZM120.41,186.55c3.44-.04,4.47-3.33,6.71-4.79v-2.77c1.66-1.92,4.74-2.52,5.09-5.63-.6-.55-1.2-1.12-1.94-1.81-3.29,3.95-6.48,7.79-9.86,11.85,0,.74,0,1.86.24,3.07-.21-.14-.41-.29-.62-.43-1.37,1.49-2.73,2.99-4.57,5,1.57.41,2.3.6,3.09.8.37-1.02.64-1.79.93-2.55.37-.95.77-1.89.92-2.75ZM171.8,884.43c.2,0-.47,0-1.24,0-2.64-3.52-6.98-5.43-8.96-9.14h-3.82c3.26,5.25,5.74,10.51,9.38,15.1,1.26,1.59,1.6,3.98,2.99,5.38,1.38,1.4,3.04,2.16,4.29,4.14,2.63,4.19,6.62,7.5,9.62,11.49,1,1.33,4.16.17,3.35,3.14,3.63,4.08,6.87,8.62,11.03,12.05,2.31,1.91,4.57,3.92,6.88,5.85,2.31,1.93,4.75,3.71,6.99,5.71,2,1.78,3.68,3.93,5.74,5.61,1.76,1.43,3.81,2.58,5.86,3.58,2.29,1.12,2.84,3.72,5.12,5.06,3.7,2.18,6.81,5.34,10.8,8.6h3.66c1.12,1.76,2.14,3.37,2.98,4.68,1.54.45,2.96.5,3.89,1.21,2.87,2.15,6.45,3.35,9.06,5.41,2.98,2.34,6.17,3.65,9.46,4.85,2.6.95,4.23,3.12,7.08,4.01,4.63,1.45,8.95,4.15,13.51,6.1,2.47,1.05,4.64,3.9,6.97,3.93,3.4.04,4.74,4.24,8.19,3.1,5.42,3.14,11.46,4.8,17.38,6.49,5.8,1.66,11.22,5.07,16.89,4.26,3.3,1.58,5.65,4.25,8.43,1.91,3.7.86,6.09,3.86,9.78,3.4,4.18-.52,8.14.66,12.16,1.37,1.84.33,3.64,1.2,5.48,1.24,2.92.06,5.54.51,7.58,2.76,2.02,0,4.05-.17,6.03.05,1.85.21,3.66,1.26,5.47,1.2,3.73-.11,7.08,1.27,10.56,2.1,4.36,1.05,8.65,2.54,13.21,1.97,1.85-.23,3.64-1.14,5.48-1.22,1.74-.08,4.42,1.34,5.08.62,1.38-1.49,2.83,2.02,3.5-.46,1.34.37,2.67.89,4.04,1.06,1.54.18,3.19-.25,4.66.11,2.18.54,4.25,1.54,6.47,2.39,1.55-1.73,3.54-1.08,5.73-.64,4.57.93,9.21,1.51,13.83,2.18.61.09,1.31-.02,1.91-.22,4.45-1.53,8.98-2.51,13.72-2.46.9.01,1.8-.25,2.7-.38-.66-.75-1.35-.69-1.87-.96-7.08-3.61-15.15-1.52-22.49-3.87-1.32-.42-3.23,1.28-4.74,1.08-1.81-.23-3.44-1.38-5.49-1.29-1.37.06-2.78-.7-4.23-1.11-1.26.37-2.63,1.06-4.03,1.14-2.1.12-4.17-.58-6.19-.99-3.05-.61-6.5-2.25-9.77-.29-3.78-2.53-8.39-2.28-12.53-3.66-2.96-.98-5.98-1.99-9.35-1.83-3.29.16-6.53-.97-9.64-2.44-2.78-1.31-5.95-1.76-8.87-2.82-2.58-.94-5.24-1.19-7.8-2.86-2.95-1.92-6.49-3.51-10.4-3.93-3.87-.42-8.14-.76-11.19-3.49-2.24-2.01-5.14-1.72-7.42-3.21-2.45-1.61-4.93-3.17-7.41-4.73-.34-.22-.78-.52-1.13-.46-2.51.4-4.44-1.08-6.6-1.88-2.37-.88-4.78-1.63-6.57-3.52-2.09-2.2-5.61-.24-7.6-2.66-3.49.83-5.56-2.62-8.91-2.88-2.72-.21-5.23-2.77-7.97-3.1-3.35-.4-5.07-4.18-8.65-3.48-2.08-2.98-6.17-2.73-8.52-5.29-3.94,1.05-6.66-2.24-10.19-3-4.94-1.07-9.53-3.82-14.24-5.91-8.16-3.62-15.51-8.73-23.52-12.69-4.44-2.19-8.55-4.95-13.21-6.92-3.63-1.53-6.46-4.96-9.79-7.66-.43,0-1.29.27-1.74-.04-5.59-3.81-10.46-8.45-15.11-13.3-3.33.14-4.86-1.77-6.22-4.56-1.19-2.44-2.86-5.29-5.1-6.45-4.11-2.14-5.55-6.38-8.69-9.24-2.34-2.13-3.51-5.56-4.12-9.36.56.31,1.86.69,2.64,1.54,1.56,1.68,2.72,3.72,4.25,5.44,1.77,2,3.75,3.81,5.65,5.7,3.94,3.94,7.92,7.84,11.79,11.85,1,1.04,1.63,2.42,2.33,3.49.7.25,1.27.52,1.87.65,3.82.84,5.39,4.64,8.69,6.42,5.53,2.98,10.55,6.91,15.67,10.6,1.42,1.02,2.3,3.63,3.62,3.78,3.95.45,7.1,2.33,10.78,5.01.14-2.86.24-4.95.33-6.88-1.19-.63-2.2-.99-3-1.62-4.23-3.27-8.26-6.83-12.69-9.8-1.98-1.33-3.69-2.85-4.47-4.79-1.55-3.9-6.34-4.63-7.69-8.53-4.81-1.92-5.65-7.17-9.89-10.67.04,0-1.01-.11-2.11-.23-2.34-3.14-6.23-4.94-7.31-8.32-3.59-2.29-7.68-3.65-9.66-6.48-2.57-3.67-6.04-6.29-8.03-8.89-1.03-3.36-1.78-5.8-3.03-9.86-1.19,3.34-1.81,5.08-2.37,6.66-1.85-.72-3.73-1.44-4.25-1.65-1.55.53-2.66.91-4.03,1.38,3.89,5.42,7.3,10.17,9.3,15.28ZM75.24,321.6c-.63.8-1.28,1.26-1.36,1.79-.69,5.01-1.69,9.94-2.95,14.85-.85,3.28.19,6.71-1.2,10.23-1.19,3-.3,6.69-1.38,10.13-.89,2.85.9,6.82-.45,9.16-1.75,3.03.41,6.69-2.41,9.09-.45,6.29-1.03,12.57-1.28,18.87-.12,3.09-.2,6.03-2.7,8.32.43.47.85.94,1.12,1.23-1.25,3.59-2.47,7.09-3.55,10.18.85,2.83,2.85,5.83,2.15,7.89-1.87,5.46-.63,10.88-1.08,16.27-.13,1.55.49,3.42-.18,4.6-.68,1.19-1.17,2.18-1.21,3.55-.04,1.46.53,3-.9,4.37-.37.36.75,2.09.9,3.23.18,1.32.49,2.89-.04,3.98-2.13,4.41-.88,9.04-1.29,13.55-.11,1.21-.57,2.39-.93,3.87.1.1.53.58,1.15,1.27-.48,1.02-1.38,2.11-1.46,3.25-.21,3.11.1,6.26-.12,9.37-.23,3.18-1.19,6.33-1.23,9.5-.16,11.39-.07,22.77-.05,34.16,0,1.31-.34,2.91.26,3.89,2.17,3.55.77,7.33.99,10.97.24,3.96-.04,7.96-.25,11.94-.04.7-.85,1.36-1.21,1.89.65,1.05,1.5,1.78,1.47,2.47-.4,8.58,2.39,16.97,1.43,25.58-.22,1.99-.15,4.02.01,6.02.1,1.22.82,2.4.9,3.62.22,3.63,1.87,6.94,1.86,10.68-.01,3.79.51,7.73,1.59,11.36,1.92,6.4,3.14,12.96,5.03,19.35,1.3,4.41,1.22,9.15,3.4,13.32,1.08,2.06,1.43,4.37,2.13,6.5,1.19,3.64.73,7.66,2.55,10.97,1.8,3.29,1.39,6.95,2.42,10.37,1.21,4.05.61,8.62,1.67,12.75.82,3.2,1.01,6.31,1.27,9.52.22,2.71,8.03,20.14,10.44,22.36,2.1,1.93,1.02,4.11,1.5,5.35,1.65,2.09,3.06,3.5,4.02,5.17,3.1,5.4,6.04,10.89,9.05,16.34.6,1.09,1.22,2.18,1.9,3.23,1.25,1.94,2.65,3.8,3.81,5.8,3.79,6.5,6.82,13.39,11.63,19.37,2.04,2.54,5.07,5.36,4.44,9.47,2.23,2.21,4.45,4.4,6.68,6.61v2.22c2.98,4.11,5.76,7.88,8.47,11.69,3.19,4.48,6.18,9.09,9.52,13.46,3.21,4.2,6.18,8.55,8.99,13.03,2.98,4.73,6.78,8.87,10.22,13.25,3.17,4.03,5.91,8.42,9.63,12.03.95.93,2.06,1.78,2.75,2.89,4.38,7.07,10.61,12.6,16.86,17.65,7.25,5.85,15.81,10.1,23.91,14.85,2.48,1.45,5.02,2.84,7.75,3.92,2.87,1.14,5.56,2.79,8.23,4.36,1.82,1.07,3.34,3.11,5.23,3.49,6.82,1.35,12.07,6.63,19.13,7.33,1.3.13,2.48,1.49,3.72,2.27.88.55,1.73,1.2,2.68,1.61,6.46,2.73,13.41,4.27,19.45,8.04.87.54,1.82,1.19,2.79,1.31,5.48.63,10.37,2.81,15.34,5.06,4.12,1.87,8.68,2.74,12.9,4.42,6.52,2.58,13.33,4.37,19.52,7.89,3.36,1.91,7.27,2.93,11.01,4.1,7.9,2.46,15.95,4.5,23.17,8.76.69.41,1.63.37,2.4.66,4.06,1.51,8.32,2.66,12.11,4.68,4.41,2.35,8.84,4.49,13.59,6.04,9.24,3.01,17.86,7.79,27.55,9.49,6.95,4.36,15.17,4.38,22.78,6.4,4.27,1.13,8.96.7,13.49,1.28,9.54,1.23,19.25,1.17,28.89,1.56,3.12.13,6.26-.11,9.37.08,1.4.09,2.76.83,4.15,1.28,1.94-2.11,5.13-2.11,6.67-1.13,2.85,1.81,5.56.93,8.29,1.06,4.68.23,9.6-.8,13.99.34,3.5.91,6.83.71,10.23,1.08,3.4.37,6.76,1.06,10.17,1.29,8.52.56,17.04.93,25.57,1.37.45.02.96-.14,1.33.02,6.36,2.87,13.21,1.77,19.51.97,5.89-.74,11.96-2.4,17.86-3.32,6.5-1.02,12.88-3.04,19.6-3.22,3.56-.09,7.06-2.1,10.59-3.25-.06-.2-.13-.39-.19-.59h21.92c2.15-1.13,3.55-2.17,5.12-2.63,3.6-1.06,7.65-1.17,10.84-2.91,3.81-2.07,7.98-2.44,11.91-3.57,3.11-.9,6.86-.45,10.05-1.69,3.15-1.22,6.5-1.58,9.61-2.69,3.69-1.32,7.66-1.46,11.21-3.75,2.66-1.72,5.92-3.47,8.97-3.97,4.47-.74,8.21-2.97,12.34-4.33,4.3-1.41,8.86-2.28,12.59-5.22,1.07-.84,2.74-.88,4.08-1.42,2.68-1.07,5.57-1.87,7.93-3.43,2.98-1.97,6.18-3.64,9.36-4.94,4.12-1.69,7.38-4.65,11.41-6.42,3.77-1.66,6.89-4.42,10.99-5.86,3.77-1.32,7.81-2.99,10.84-6.28,1.77-1.92,4.45-3.08,6.86-4.32,3.85-1.98,7.5-4.16,9.16-6.33,4.45-2.31,7.64-3.81,10.68-5.57,2.72-1.58,5.59-3.12,7.82-5.26,2.38-2.28,4.77-4.88,7.27-6.71,4.69-3.42,8.23-7.89,12.55-11.58,2.78-2.38,5.49-4.92,8.54-6.9,4.34-2.81,8.83-5.71,11.81-9.72,6.07-8.19,12.19-16.26,19.55-23.35,1.34-1.29,2.33-2.94,3.52-4.47.92-.05,1.96-.11,2.36-.14,2.73-4.44,3.24-9.6,8.31-11.02,2.37-4.09,2.91-9.22,8.01-10.67,1.28-3.52,2.03-6.74,5.18-9.45,3.02-2.61,4.03-7.48,6.95-10.29,3.33-3.21,5-7.47,8.27-10.7,2.74-2.7,3.77-6.93,5.85-10.19,5.37-8.45,9.85-17.34,14.38-26.23,2.07-4.06,5.15-7.88,6.05-12.18.93-4.45,3.13-8.14,4.72-12.16,2.47-6.24,4.79-12.46,5.33-19.24.27-3.4.79-6.93,1.57-10.1,1.36-5.47,4.31-10.54,3.78-16.47,2.39-3.09,2.13-7.1,3.5-10.6,1.4-3.57,2.63-7.78,1.82-11.98,2.73-1.6.67-4.78,2.43-7.12,1.21-1.61.42-4.84,1.48-7.34.97-2.27,1.15-4.93,1.41-7.44.26-2.54.36-4.98,1.19-7.54.95-2.94.29-6.26,1.35-9.49.96-2.93,1.01-6.37,1.24-9.45.42-5.63,2.6-11.1,1.64-16.84-.11-.64-.26-1.6.08-1.94,2.5-2.47.94-5.49,1.18-8.23.27-2.98,1.91-5.62,1.48-8.83-.82-6.1,2.28-12.01,1.28-18.19-.06-.38.04-.97.3-1.19,1.96-1.61.6-3.77,1.03-5.62.42-1.83,1.17-3.63,1.28-5.48.39-6.3-.23-12.57,1.22-18.91,1.14-4.99-.2-10.31,1.34-15.53.97-3.29,0-7.1.23-10.66.21-3.4,1.19-6.77,1.23-10.17.15-14.07-.07-28.13.15-42.2.06-3.63-3.16-7.09-.47-10.79-2.43-7.8-1.89-16.02-3.41-23.99-.83-4.35-.61-9.02-1.6-13.46-.78-3.54-.75-7.31-1.79-10.66-2.02-6.54-2.56-13.26-4.05-19.8-1.08-2.89-1.98-5.84-2.89-8.79-2.82-9.16-6.56-18.04-7.44-27.77-.37-4.1-1.57-8.24-3.09-12.08-1.46-3.7-2.44-7.52-3.71-11.2-4.18-12.07-7.75-24.42-13.66-35.86-.94-1.81-1.66-3.8-2.4-5.7-1.5-3.85-3.64-7.38-4.41-11.6-.35-1.89-2.91-3.36-3.31-5.27-1.57-7.41-6.45-13.45-8.16-20.76-2.9-2.45-2.94-6.4-4.95-9.34-3.76-5.52-6.29-11.8-10.41-17.13-2.06-2.66-3.79-5.58-5.72-8.34-4.12-5.89-8.31-11.73-12.41-17.64-5.61-8.07-11.63-15.84-17.92-23.38-8.06-9.67-18.27-17.05-27.89-24.96-5.41-4.45-11-8.78-16.69-12.93-4.26-3.11-8.39-6.59-13.1-8.83-3.21-1.53-5.81-3.46-8.42-5.51-3.87-1.48-7.57-3.31-11.28-5.1-3.16-1.53-6.23-3.88-9.54-4.29-3.38-.42-6.27-1.79-8.64-3.45-5.07-3.54-10.83-5.21-16.37-7.49-5.15-2.12-10.35-4.12-15.53-6.17.05-.21.11-.42.16-.62h-5.68c-2.11-3.22-5.8-2.78-8.51-4.38-1.72-1.01-4.11-.87-4.72-.98-14.96-5.63-28.22-11.72-43.01-13.63-.55-.28-1.29-.67-2.04-1.03-7.22-3.39-15.03-4.76-22.68-6.68-2.45-.62-5.03-.75-7.41-1.55-2.21-.74-4.99-.06-6.57-2.46-1.88.52-3.31-1.34-4.78-1.25-7.44.42-14.07-2.89-20.93-4.67-7.76-2.01-15.61-3.24-23.43-4.76-3.99-.78-8.43-.15-12.06-1.63-3.33-1.37-6.53-.29-9.56-1.2-3.38-1.01-6.71-1.52-10.19-1.24-8.14.64-16.08-2.29-24.23-1.37-.36.04-.76-.28-1.15-.44l-6.08.3c-1.32.05-3.09.68-3.87.06-2.41-1.93-5.08-1.36-7.56-1.16-9.28.76-18.33-2.1-27.59-1.46-.74.05-1.5-.66-2.29-.88-.81-.23-1.75-.56-2.49-.36-1.73.47-3.57,2.65-5.13.58-1.66-2.21-3.55,2.21-4.75-.56-3.12-.02-6.85-1.13-9.19.2-2.91,1.66-4.74.26-6.56-.36-1.1.74-1.79,1.2-1.64,1.1-2.78-.44-5.19-1.6-6.38-.85-3.4,2.17-7.14.06-10.2,1.33-3.45,1.43-6.81.98-10.23,1.18-2.4.14-5.12-.38-7.11.6-2.04,1-4.07-.02-5.68.85-1.82.98-3.57,1.24-5.53,1.26-2.12.03-4.42-.62-6.14,1.32-8.28.59-16.06,4.16-24.46,4.04-.83-.01-1.83.02-2.48.44-5.31,3.43-11.67,3.03-17.42,4.84-3.78,1.19-7.69,2.18-11.61,2.64-4.04.48-7.32,2.92-11.34,3.49-3.85.55-7.55,3.07-11.33,3.1-7.01.06-13.11,3.05-19.46,5.01-5.9,1.82-11.96,3.18-17.69,5.77-5.43,2.46-11.43,3.65-17.13,5.52-5.89,1.94-11.76,3.93-17.58,6.08-5.62,2.08-11.41,3.68-16.93,6.01-2.47,1.04-4.58,3.04-7.09,3.88-4.91,1.63-9.75,3.36-14.57,5.26-4.99,1.97-10.12,3.58-14.88,6.14-.37.2-.71.74-1.03.71-4.17-.42-7.11,2.22-10.42,3.99-2.73,1.47-5.44,3.22-8.38,3.99-8.44,2.19-14.67,7.92-21.62,12.55-4.25,2.83-7.32,7.21-12.32,9.04-1.15.42-2.08,1.52-3.01,2.4-1.62,1.53-2.95,3.49-4.79,4.66-7.39,4.7-12.98,11.37-18.67,17.73-6.3,7.04-11.37,15.18-18.14,21.89-.42.41-.52,1.13-.86,1.64-2.23,3.32-4.1,7-6.81,9.87-6.49,6.87-10.4,15.43-15.86,22.98-4.51,6.23-7.47,13.49-11.95,19.82-2.15,3.03-4.01,6.35-5.5,9.77-1.98,4.55-4.82,8.43-7.72,11.55-.43,1.99-.42,3.62-1.1,4.88-3.36,6.22-6.98,12.29-10.33,18.51-1.86,3.45-3.61,7-4.99,10.66-3.28,8.7-4.31,18.19-9.24,26.32-.2.33-.25.86-.17,1.25.57,3.07-1.86,5.05-2.8,7.93.4.5.93,1.15,1.83,2.27ZM54.46,343.79c-2.42,3.62-5.16,6.33-6.25,9.6-2.65,7.87-6.81,15.05-9.74,22.76-.29.77-1.01,1.45-1.09,2.22-.56,5.48-3.67,9.71-6.23,13.33-1.19,2.65-.1,4.71-1.49,6.96-1.68,2.73-1.58,6.53-3.17,9.34-1.78,3.15-1.52,6.81-3.7,9.92-1.8,2.57-1.52,6.5-2.98,9.42-1.68,3.34-1.45,6.96-2.35,10.39-1.17,4.43-2.39,8.91-3.12,13.53-.81,5.21-2.96,10.22-2.45,15.67-2.09,2.62-2.04,5.97-2.51,8.96-.53,3.36-.77,6.76-1.35,10.16-.83,4.86.58,10.02-1.51,14.82.57,9.46-2.17,18.75-1.4,28.24.34,4.21.14,8.48.01,12.72-.05,1.56-1.36,3.5-.8,4.58,1.81,3.46-.52,7.38,1.03,10.28,2.01,3.74.44,7.36,1.16,10.93.33,1.63.78,3.23,1.22,5.05-.63,1.42-1.9,2.71-.68,5.02,1.45,2.74,2.55,5.81,2.19,9.15-.1.96.56,1.98.76,3,.97,4.91,3.35,9.48,4.31,14.24,1.78,8.87,6.04,16.77,8.53,25.32.57,1.95,1.94,3.65,2.76,5.55.9,2.08,1.4,4.35,2.45,6.34.98,1.86,2.52,3.41,3.69,5.18.31.48-.02,1.35.25,1.9,2.58,5.19,5.05,10.43,7.9,15.47,1.65,2.91,3.1,5.8,4.25,8.97,1.34,3.67,1.97,7.84,5.57,10.46,1.09.79,1.69,2.37,2.32,3.68,1.41,2.98,2.56,6.1,4.12,9,.59,1.09,2.02,1.73,3.94,3.28,0-3.58.89-6.55-.21-8.24-1.58-2.42-1.07-4.67-1.06-6.95.02-4.57-.09-9.11-1.44-13.5-.69-2.24-1.19-4.44-1.44-6.81-.33-3.04-1.31-6.13-2.63-8.91-1.52-3.18-3.49-6.06-4.21-9.67-.51-2.56-1.6-5.35-3.31-7.26-3.08-3.45-1.95-8.8-5.8-11.71.98-3.54-2.08-5.85-2.73-8.92-.68-3.25-1.74-6.41-2.63-9.61-.45-1.6-1.37-3.24-1.26-4.8.49-6.58-1-12.69-3.55-18.66-.89-2.08-1.16-4.16.75-5.88-.43-.49-1.25-1-1.24-1.48.16-6.34-2.36-12.47-1.43-18.87.18-1.28.21-2.72-.19-3.92-1.46-4.47-2.11-9.08-2.39-13.71-.29-4.67-.18-9.37-.01-14.06.08-2.29.67-4.55,1.07-7.09-.21-.22-.65-.7-1.04-1.11,2.47-3.04,1.36-6.02.19-8.46.43-1.86.94-3.26,1.04-4.68.52-6.95.98-13.91,1.32-20.87.06-1.17,2.33-2.12.14-3.7-.91-.66,1.84-2.58.08-4.05,2.49-5.45,2.12-11.52,3.71-17.19,1.02-3.65-.04-7.59,1.24-11.54,1.14-3.52.41-7.58,1.4-11.47,1.17-4.62.87-9.59,1.57-14.35.61-4.13,1.39-8.32,2.82-12.22.51-1.41,1.17-2.68,1.14-4.2-.12-6.46,2.63-12.29,3.97-18.57-.34-.38-.77-.87-1.21-1.36,1.02-1.52,2.2-2.71,2.81-4.81,1.78-6.18,3.03-12.51,5.14-18.6,1.02-2.94,2.69-5.64,2.75-8.93.04-2.7.55-5.39.99-9.25ZM1020.85,365.77c2.84,5.1,3.16,9.98,3.93,14.71.28,1.71-.24,3.71.46,5.16,2.8,5.73,2.13,12.36,4.92,18.05-.53,7.83,3.03,15.17,2.72,22.99-.03.77.49,1.56.77,2.34.62,1.75,1.59,3.46,1.81,5.26.74,6.02,1.2,12.07,1.74,17.72,3.88,8.68,4.16,17.85,5.8,26.68.76,4.07.55,8.32.76,12.03.97,2.21,1.43,4.42,2.72,5.92,1.75,2.05,1.77,4.87.92,6.16-3.26,4.94,1.64,8.78.45,13.29,1.08-.16,1.81-.11,1.88-.29.69-1.95,1.65-3.91,1.79-5.92.28-4,.43-8.06-.01-12.03-.47-4.25,1.5-8.04,1.47-12.17-.1-13.83-.04-27.66-.04-41.5,0-1.12.45-2.54-.08-3.29-1.98-2.81-1.41-5.94-1.15-8.86.29-3.17-1.46-5.87-1.4-8.82.18-8.68-1.18-17.15-2.47-25.7-.7-4.64-1.7-9.1-2.91-13.58-1.47-5.43-2.67-10.94-4.06-16.39-.82-3.22-2.15-6.49-2.45-9.62-.74-7.64-3.87-14.54-5.58-21.85-.85-3.66-1.67-7.33-2.71-10.93-.69-2.37-1.86-4.59-2.62-6.94-2.31-7.08-4.47-14.21-6.81-21.28-.64-1.95-2.66-3.9-2.39-5.58.51-3.11-3.09-3.73-2.89-6.29.04-.44,0-.89,0-.34-2.08-3.43-4.02-5.99-5.28-8.85-1.6-3.62-3.66-6.96-5.48-10.44-1.54-2.95-3.36-5.78-5.25-8.53-1.58-2.29-3.7-4.23-5.1-6.61-1.25-2.12-3.62-3.53-3.84-6.33-.08-.95-.75-1.94-1.38-2.75-1.99-2.55-4.24-4.9-6.07-7.55-1.27-1.84-1.99-4.05-3.43-7.08-3.51-1.99-3.89-8.53-9.33-10.39-.13.38-.42.78-.38,1.16.51,4.85,2.99,9.18,5.06,13.27,2.7,5.35,5.4,10.7,7.78,16.21,1.85,4.3,3.33,8.64,3.25,13.39,0,.37.33.75.51,1.12.61.14,1.22.27,1.95.44.07.65,0,1.33.21,1.89,3.61,9.44,6.42,19.17,10.63,28.39,1.88,4.13,3.15,8.51,4.21,13,1.41,6.02,3.72,11.82,5.59,17.74,1.38,4.35,4.61,8.17,3.87,11.68,1.1,3.45,2.28,5.59,2.37,7.78.21,4.94,1.94,9.47,3.32,14.07,1.03,3.45,2.67,6.69,2.21,9.5ZM50.02,381.86c-.68,2.11-1.69,4.04-1.89,6.05-.66,6.53-4.42,12.34-4.25,19.02-2.28,2.22-.28,5.23-1.27,7.51-2.18,5.08-2.15,10.62-3.67,15.86-1.6,5.51-1.18,11.61-1.58,17.45-.12,1.78.47,3.75-.1,5.32-2.52,6.85-2.33,14.14-3.75,21.17-1.32,6.56-1.08,13.43-1.52,20.17-.03.44.17,1-.03,1.32-1.05,1.7-1.79,3.56-1.24,5.47.5,1.73-1.86,2.97-.27,5.09.71.95-1.03,3.49-1.08,5.33-.17,5.8-.23,11.61-.01,17.41.2,5.63-1.16,11.4,1.29,16.86-.98,6.61,1.54,13,1.29,19.53-.21,5.48,2.38,10.67,1.4,16.19-.04.22-.08.48,0,.66.82,1.85,2.79,4.15,2.27,5.42-.96,2.3.94,3.74.57,5.78-.34,1.91.36,4.24,1.26,6.07,1.44,2.94,1.28,6.16,2.01,9.19.88,3.67,3.22,6.69,3.52,10.72.26,3.5,2.41,6.97,3.88,10.36,1.86,4.27,3.27,9,7.92,12.44,0-6.97,0-13.39,0-19.81,0-.44.18-1.09-.05-1.3-2.62-2.41-.31-5.68-1.41-8.14-1.23-2.73-1.4-5.44-1.18-8.2.81-10.15-1.48-20.15-1.39-30.26,0-.63.04-1.4-.27-1.88-2.12-3.27-.71-6.87-.97-10.29-.09-1.11,1.5-2.6,1.15-3.41-2.49-5.76-.86-11.73-1.17-17.58-.29-5.57-.06-11.16-.06-16.74v-16.74c0-5.58-.27-11.18.08-16.74.34-5.39-1.52-10.95,1.18-16.16-2.82-4.76-.19-10.03-1.42-14.84-.5-1.96,1.62-2.85.54-5.13-1.54-3.25-.03-16.98.8-21.42.35-1.86.45-4.17-.36-5.76-1.76-3.47-.25-6.97-.83-10.38,2.67-2.35.84-5.44,1.33-8.15.49-2.71,1.19-5.42,1.29-8.15.2-5.78.06-11.57.06-17.01-.81-.92-1.39-1.57-2.06-2.32ZM464.87,22.84c-6.62.8-13.82-.81-21.04,1.21-3.93,1.1-8.43.06-12.66.25-2.52.11-4.92.05-7.57,1.03-3.91,1.44-8.45,1.2-12.73,1.58-3.63.32-7.06,2.13-10.82,1.36-2.41,2.32-5.84.25-8.04,1.52-3.04,1.75-5.98.71-8.92,1.16-1.45.22-2.84.2-4.37.73-3.55,1.25-7.41,1.62-11.14,2.35-2.05.89-4.16,1.78-6.37,2.24-7.35,1.52-14.25,4.47-20.94,7.6-3.78,1.77-7.27,3.31-12,3.12-1,1.24-2.25,2.79-2.94,3.64-4.34,1.01-7.4,2.91-10.71,4.06-3.04,1.06-6.31,1.83-8.99,4.27-2.55,2.33-5.8,4.48-9.09,5.3-5.32,1.31-10.04,3.94-14.91,6.06-5.09,2.22-10.75,4.03-14.43,8.78-4.66.77-6.99,4.62-9.37,6.73.46,1.24.87,2.32,1.15,3.08,5.44-2.57,9.95-6.08,14.81-6.65,6.32-.74,11.07-4.97,17.12-5.76,2.88-2.84,7.04-2.32,10.41-3.97,3.59-1.76,7.31-3.38,11.31-2.68.99-.99,1.78-1.78,1.93-1.93,2.75-.88,4.75-1.44,6.7-2.16,2.7-1,5.3-2.33,8.05-3.16,5.15-1.56,9.67-5.11,15.39-4.86,5.26-3.3,11.5-3.44,17.2-5.31,2.78-.91,5.74-1.29,9-2,.47-.47,1.26-1.26,2.17-2.17,4.77,1,9.21-.81,13.34-2.88,1.76-.88,3.28-1.06,4.94-1,4.66.17,8.59-1.7,12.93-4.1,6.34,1.39,12.31-2.54,18.84-3.32,5.17-.62,10.04-2.85,15.31-3.41,3.08-.33,6.05-1.66,9.13-2.09,5.64-.8,10.88-3.51,16.76-3.29,1.93.07,3.91-1.01,6.04-1.61-1.94-1.31-3.51-2.38-5.49-3.72ZM253.33,930.26c-2.87-.51-6.13-1.09-9.4-1.67-.27.43-.54.85-.81,1.28.75.38,1.57.67,2.24,1.16,6.98,5.14,13.54,10.85,21.18,15.09,3.48,1.93,6.39,5.31,10.05,6.38,3.22.94,5.61,2.69,8.33,4.22,2.68,1.5,5.85,2.14,8.49,3.69,4.53,2.66,9.3,4.51,14.35,5.78,1.19.3,2.59.58,3.41,1.37,2.58,2.48,5.6,3.52,9.08,4.06,2.39.38,4.92,1.28,6.88,2.66,5.17,3.64,12.27,3.1,16.8,7.96,3.73.65,6.95,2.59,10.4,3.98,3.25,1.31,6.56,2.66,9.98,3.32,3.73.72,7.08,2.38,10.62,3.51,4.24,1.35,8.42,2.69,12.91,2.73,2.19,2.75,5.68.34,8.47,2.32,2.16,1.54,5.92.6,8.61,1.68,3.89,1.56,8.59.26,11.93,3.54.26.26.79.37,1.18.35,7.61-.5,14.74,2.89,22.31,2.71.85-.02,1.92-.13,2.53.31,2.75,1.99,6.14,1.39,9.14,2.1,5.62,1.34,11.61,1.16,17.45,1.59.67.05,1.54-.27,1.97.05,2.75,2.03,5.9,1.45,8.84,1.2,3.14-.26,5.87,1.19,8.82,1.38,5.83.39,11.62.1,17.28-2.05-.14-.59-.28-1.19-.36-1.53-2.36-.42-4.44-1.02-6.55-1.12-4.7-.23-8.7-2.8-13.31-3.64-4.53-.82-8.9-2.64-13.68-2.32-2.06-2.74-5.28-1.19-7.89-1.88-5.87-1.55-11.63-4.29-17.45-3.47-2.09-1.09-3.74-1.95-5.39-2.81-1.48,2.75-2.89-.34-4.31.12-2.72.89-4.89-1.44-7.47-1.32-2.6.11-5.03-.35-7.5-1.29-3.65-1.4-7.44-2.4-11.18-3.58-3.5-.6-7.08-1.03-10.71-1.58-4.26-.64-8.14-1.82-12.04-3.42-2.92-1.19-5.81-2.71-9.12-2.18-2.76.44-4.95-.83-7.18-2.08-.28-.16-.61-.24-.89-.34-.37.37-.69.69-1,1q-11.35-4.3-14.72-3c-3.93-2.2-8.04-3.31-12.16-3.5-3.17-.15-5.48-2.98-8.74-2.2-2.34-2.54-5.54-2.74-8.66-3.36-2.63-.52-5.46-1.05-7.65-2.44-2.43-1.55-4.87-1.59-7.44-2.16-2.88-.63-5.35-3.12-8.06-4.68-.5-.29-1.33.05-1.98-.06-.81-.14-1.75-.25-2.36-.72-2.98-2.34-6.61-3.51-9.79-5.53-4.24-2.69-9.57-3.71-12.44-8.5h-3.95c-2.99-2.55-5.79-5.33-8.98-7.54-3.06-2.11-6.54-3.63-10.11-5.55ZM754.4,998.38c1.85-.52,3.46-1.48,4.95-1.31,9.23,1.04,17.44-3.73,26.39-4.46,2.87-.23,6.4-.87,8.9-2.49,2.97-1.92,6.2-2.55,9.36-3.3,3.25-.77,5.39-3.65,8.29-4.17,2.59-.46,4.05-2.19,6.14-3.08,2.28-.97,4.8-1.49,6.88-2.75,6.23-3.77,12.51-7.4,18.95-10.8,2.54-1.34,5.16-2.82,7.5-4.49,7.46-5.31,14.66-10.98,21.99-16.48,2.31-1.73,4.71-3.34,7.55-5.35-.8-2.98,2.81-2.48,4.44-3.95,6.71-6.03,12.02-13.57,19.79-18.47,1.76-4.53,5.89-7,9.05-10.28,3.16-3.27,5.06-7.58,8.15-10.62,5.6-5.53,9.53-12.14,13.99-18.41,1.1-1.54,2.67-3.18,2.05-6.03-1.14.56-2.03.74-2.53,1.29-2.47,2.72-5.09,5.25-7.33,8.27-2.48,3.35-6.55,5.5-9.8,8.32-2.67,2.32-5.16,4.84-8.45,7.96.13-.01-.93.1-2.22.24-2.32,4.99-6.44,8.51-11.11,11.19-2.75,1.58-5.2,3.46-6.81,5.89-1.71,2.57-4.25,3.72-6.39,5.53-1.36,1.15-2.54,2.52-4.05,4.05.03,0-.48-.09-.8.12-8.89,5.68-17.83,11.29-26.03,17.97-2.85,2.32-5.33,5.31-8.51,6.98-8.15,4.29-14.88,10.73-23.44,14.48-6.46,2.83-11.7,8.03-18.11,11.23-4.27,2.14-8.35,4.64-12.47,7.08-1.63.97-3.3,2-4.63,3.33-3.28,3.26-7.74,4.43-11.24,2.59-3.62-1.89-5.73-.05-8.32.91-2.13.79-4.28,1.68-6.29,2.56-1.98.86-3.61,2.83-5.86,2.57v3.87ZM1020.7,724.44c1.44-1.61,3.11-2.48,2.83-4.7-.12-.95.83-2.02.73-2.98-.34-3.14,2.83-4.57,3.31-7.39.51-3.04,1.08-6.39,2.75-8.84,1.99-2.91-.12-6.59,2.52-9.04-1-4.11,3.7-6.83,2.68-10.94,2.24-3.07.94-7.04,2.63-10.3.75-1.44,1.4-3.2,1.31-4.77-.3-5.04,1.48-9.69,2.95-14.23,1.11-3.43,1.31-6.96,2.33-10.38,1.14-3.85.32-8.35,1.74-12.03,1.07-2.76.19-5.67,1.55-8.05,2.74-4.78,1.89-10.29,3.51-15.29.77-2.39,1.08-4.95,1.35-7.47.21-1.99-.68-4.48.24-5.9,1.01-1.57-.3-3.05.95-4.64.98-1.25-.5-4.25.34-5.79,1.61-2.94.29-6.18,1.39-8.82,2.85-6.84,2.83-14.18,3.52-21.21.81-8.22,2.61-16.49,1.65-24.86-.08-.66-.26-1.48.03-1.99,2.84-4.99.42-10.24,1.76-16.64-2.43,3.28-3.54,5.41-3.13,8.01.99,6.18-1.13,12.12-1.64,18.17-.28,3.33-.01,7.14-1.24,10.1-2.76,6.66-2.44,13.75-3.5,20.56-.95,6.11-2.76,11.84-4.31,17.71-1.11,4.21-3.09,8.36-3.72,12.44-.84,5.46-3.64,10.57-3,16.25-2.75,2.06-.66,5.3-1.94,7.91-1.06,2.17-1,5.18-.62,7.7.46,3.02-.97,5.49-1.61,8.13-.43,1.76,2.23,2.51.62,4.53-.89,1.11-.47,3.37-.44,5.11.08,4.56-1.22,8.98-1.7,13.47-.38,3.54-.61,7.71-2.48,10.9-2.2,3.75-2.58,7.92-3.73,11.85-2.2,7.51-7.47,24.58-10.83,31.69-.7,1.48-.87,3.2-1.4,4.78-.33.97-.82,1.9-1.33,2.8-2.98,5.24-6.41,10.28-8.86,15.75-2.23,4.96-4.82,9.65-7.69,14.22-1.67,2.65-3.4,5.27-4.84,8.04-1.52,2.92-2.93,5.94-4,9.05-.9,2.63-2.91,5.12-1.75,8.21-3.17,6.76-3.27,14.61-7.51,21.01-.5.75-.16,2.05-.23,3.46,1.67-.83,2.88-1.43,3.46-1.72,2.2-9.78,9.07-16.14,13.98-23.82-.31-3.04.92-5.66,3.22-7.85,2.08-1.98,3.56-4.22,3.53-7.26,0-.78.33-1.66.75-2.35,3.15-5.15,6.91-10.01,7.32-16.42.04-.69,1.26-1.23,1.62-1.98,2.1-4.5,5.84-8.44,4.93-14.22ZM96.34,765.09c1.08,2.05,1.94,3.49,2.62,5.01,1.84,4.15,3.53,8.36,5.41,12.49.77,1.7,1.89,3.23,2.81,4.87,1.45,2.56,1.93,5.67,4.7,7.48.75.49,1.07,1.74,1.45,2.7,2.49,6.23,6.49,11.6,9.82,17.35,1.06,1.84,2.92,3.22,3.93,5.08,3.83,7.12,8.81,13.53,13.93,19.58,6.22,7.36,13.89,13.49,21.07,20.01,1.65,1.5,3.84,2.4,6.75,4.16-.44-2.3-.42-3.76-.99-4.93-1.36-2.8-2.78-5.61-4.57-8.14-4.34-6.13-7.47-13.11-14.1-17.63-2.72-1.85-4.47-5.6-5.85-8.83-2.4-5.63-2.96-6.72-6.93-10.43-1.85-1.73-3.86-3.78-4.64-6.07-1.44-4.26-3.91-7.84-6.38-11.41-1.45-2.09-2.85-4.05-3.82-6.48-1.06-2.68-2.96-5.04-4.63-7.45-3.26-4.69-6.87-9.16-9.85-14.02-3.02-4.92-4.85-10.5-7.36-15.7-1.9-3.94-4.86-6.86-6.97-10.47-.41-.7-1.62-.92-3.33-1.82.94,6.08,2.27,11.05,4.31,15.78,1.35,3.12,2.84,6.12,2.67,8.88ZM251.68,924.55c2.44,1.2,4.48,2.22,6.53,3.23,2.41,1.19,5.27,1.9,7.12,3.67,1.91,1.83,3.7,3.46,6.21,4.31,2.15.73,4.58,1.14,6.34,2.43,6.77,4.98,14.19,8.69,21.73,12.27,3,1.42,5.8,3.03,9.11,3.94,3.3.91,6.36,3.09,9.2,5.15,1.41,1.03,2.66,1.36,4.2,1.24,3.31-.27,6.15,1.1,9.06,2.4,4.98,2.23,10.2,3.63,15.62,4.36,2.24.3,4.62.81,6.56,1.9,4.4,2.48,9.27,2.62,14.01,3.36,2.09.33,4.1.54,6.2,1.17,2.87.86,5.94,2.9,9.24,1.1-1.78-4.41-4.8-6.77-9.69-7.76-4.16-.84-7.95-3.37-11.99-4.91-4.34-1.65-8.74-3.2-12.82-2.99-3.42-2.32-6.38-4.32-9.49-6.43-.07-.27-.22-.87-.42-1.67h-6.86c-.34-.78-.89-2.03-1.46-3.32-1.45,1.04-2.11,1.5-2.68,1.91-5.47-3.93-12.76-4.31-17.7-9.19-.23-.22-.88.04-1.31-.04-2.68-.52-6.13-.23-7.85-1.81-2.34-2.15-5.57-2.01-7.76-4.38-1.14-1.23-3.45-2.32-5.85-1.93-1.09.18-2.37-1.03-3.52-.96-1.23.07-1.9,1.23-3.8.41-4.18-1.82-8.08-4.18-13.54-5.97-.81-.07-2.86-.23-5.17-.42.71-.86,1.08-1.31,1.46-1.77-3.91,1.55-4.93-4.84-8.79-3.02-.51,1.01-1.07,2.13-1.88,3.72ZM1011.04,675.02c2.62-2.65,5.1-3.82,4.38-6.85,2.46-3.03,2.26-7.07,3.98-10.41,2.3-4.49,3.36-9.39,4.12-14.38.44-2.86,1.6-5.6,2.2-8.44,1.68-7.97,6.64-15.14,5.78-23.73,2.08-2.93.38-6.61,1.54-9.41,1.36-3.27.87-6.39,1.13-9.57.05-.66-.22-1.57.12-1.94,2.55-2.71.67-5.96,1.2-8.9.53-2.93,1.24-5.87,1.3-8.82.17-9.15.06-18.3.06-27.46,0-1.34.53-3.02-.09-3.96-3.34-5.12,1.04-11.38-2.81-16.17.64-.69,1.09-1.18,1.54-1.66-2.76-6.21-.39-12.94-1.7-19.61-.85.79-1.46,1.36-2.16,2.02-.7,6.39.98,13.04-1.48,19.36.97,7.49-1.47,14.77-1.41,22.21.02,2.04-1.03,4.08-1.22,6.15-.22,2.43.9,5.64-.29,7.18-1.58,2.05,1.24,3.23.04,4.32-1.86,1.69-.8,3.73-1.16,5.58-.4,2.06-1.15,4.08-1.28,6.15-.36,5.63-.37,11.23-1.09,16.89-.79,6.19-2.59,12.44-1.65,18.83.1.66.3,1.67-.03,1.95-2.32,1.99-.49,4.77-1.4,6.82-1.11,2.5-.96,4.99-1.29,7.52-.8,6.09-1.9,12.14-2.94,18.19-.21,1.22-.85,2.38-.98,3.59-.25,2.39.53,5.34-.62,7.07-1.43,2.16-.26,4.48-1.84,6.73-1.64,2.32-1.23,6.08-1.96,10.73ZM892.83,112.24c-1.04-2.85-1.46-4.2-2.02-5.49-1.11-2.57-4.86-2.55-5.59-5.61-.07-.29-1.25-.19-1.71-.54-2.23-1.67-4.39-3.42-6.57-5.15-1.18-.94-2.26-2.03-3.51-2.84-4.21-2.73-8.46-5.4-12.73-8.02-3.72-2.29-7.33-4.93-11.33-6.56-2.12-.87-4.51-1.19-6.12-2.93-1.81-1.96-5.37-.73-6.5-3.75-6.28-3.15-12.37-6.81-18.92-9.21-2.68-.98-5.15-2.72-8.11-3.07-7.4-.86-13.33-5.49-20.09-8.03h-7.15c-.61-.79-1.42-1.84-1.81-2.35h-9.77c5.65,4.7,12.71,4.84,17.86,8.95,1.48,1.18,3.98,1.1,6.43,1.7,1.02,1.13,2.34,2.6,3.67,4.07,4.28.9,8.02,2.64,11.69,4.51,3.53,1.8,7.04,3.5,10.31,5.94,3.27,2.44,7.87,3.05,10.42,6.89,2.98-1.38,3.84,1.6,5.71,2.47,10.5,4.91,20.8,10.21,30.83,16.02,3.21,1.86,6.65,3.33,9.94,5.07,3.48,1.84,6.9,3.8,10.36,5.67,1.07.58,2.2,1.05,4.72,2.25ZM725.07,997.27c2.28-.4,4.36-1.32,6.14-.92,1.77.4,2.87.56,4.66-.33,3.88-1.91,8.14-2.97,11.68-5.68,1.08-.83,2.69-.97,4.08-1.39.8-.24,1.84-.14,2.39-.63,3.53-3.11,8.86-3.13,12.01-7.18-.92-.53-1.98-1.66-2.71-1.48-4.82,1.17-9.88,1.79-13.85,5.23-.46-.42-.93-.84-1.18-1.07-9.72,4.04-19.75,5.97-29.36,6.66-1.62,1.07-2.79,1.65-3.71,2.5-2.21,2.05-5.05.69-7.41,1.5-8.16,2.8-16.25,5.79-25.73,9.2,6.72,0,12.06-.39,17.31.11,5.33.51,10.33-1.13,15.46-1.68,3.73-.39,7.9-1.59,10.21-4.84ZM63.58,677.82c-1.95,2.86-3.13,5.96-1.87,7.67,1.73,2.35.64,4.67,1.09,6.95.45,2.27,1.32,4.55,1.22,6.79-.1,2.3.84,4.14,1.49,6.13.77,2.34,1.86,4.58,2.63,6.93,1.42,4.32,2.37,8.82,4.12,13,2.46,5.89,5.47,11.56,8.04,16.9h4.11c-.85-3.82.18-7.29-1.16-11.1-2.38-6.81-5.53-13.36-7.31-20.39-.2-.78-1.11-1.55-1.01-2.21.55-3.47-1.65-6.01-2.72-8.94-1.07-2.91-1.46-6.15-2.96-8.78-1.78-3.14-2.79-6.44-3.81-9.81-.29-.97-1.05-1.81-1.86-3.13ZM948.25,850.44c.31-2.68,2.78-3.74,4.24-5.56,1.32-1.64,2.82-3.16,3.94-4.93,1.2-1.9,1.69-4.35,3.13-5.98,1.59-1.81,2.56-3.84,3.6-5.89,1.02-2.02,1.98-4.07,2.88-6.14.89-2.07,1.64-4.21,2.5-6.3.86-2.09,2.07-4.08,2.59-6.25.5-2.11-.5-4.49,2.15-7.08-4.57,1.97-4.77,2.06-6.08,4.16-1.86,3-3.38,6.26-5.53,9.03-4.25,5.48-7.78,11.34-10.76,17.57-2.39,5.01-4.76,10.03-7.02,15.1-.53,1.2-.56,2.63-.98,4.74,2.18-1.01,3.46-1.6,5.32-2.47ZM941.84,164.57c-2.82-3.35-5.22-6.73-8.14-9.58-7.22-7.06-14.61-13.95-22.08-20.75-2.37-2.16-5.29-3.58-9.85-4.24,2.56,2.41,4.12,3.97,5.77,5.41,1.61,1.41,3.43,2.6,4.94,4.1,1.45,1.45,2.31,3.73,3.98,4.69,5.66,3.26,9.88,8.17,13.79,13.01,2.89,3.58,6.24,6.65,9.21,10.08.3.34,1.15.21,2.05.34.1-1,.19-1.82.32-3.06ZM433.74,10.87c-1.59.13-3.49-.2-4.84.5-1.76.91-3.07.16-4.62.12-3.15-.07-6.55-1.91-9.31-.48-3.23,1.68-6.78,0-9.43,1.38-3.28,1.72-6.41,1.08-9.55,1.03-3.98-.06-7.04,1.31-9.63,4.08-.47-.42-.93-.82-1.76-1.55-.08,1.11-.14,1.87-.24,3.24,7.97-.57,15.71-.22,23-1.87,8.54-1.93,17.08-3.03,25.73-3.82.33-.03.61-.51.87-.74-.06-.54-.11-.96-.21-1.89ZM546.61,1002.37c-4.77,2.2-9.39,2.32-12.72-.28-2.89-2.25-5.56,1.14-7.89-1.04-.3-.28-1.29-.04-1.84.22-.76.35-1.4.95-2.26,1.56,1.67.86,2.77,1.42,4.29,2.2,1.49,0,3.49.05,5.48-.01,1.96-.07,3.66.71,5.48,1.19,2.49.66,5.37.58,7.92.04,2.2-.47,4.11,2.35,6.2.23,2.15,2.46,5,.74,7.49,1.2.31.06.71-.37,1-.54-1.07-1.07-2.15-2.15-3.38-3.38-3.08-.54-6.72,1-9.77-1.38ZM631.94,1014.4c4.66,0,8.87-.32,13,.09,4.45.44,8.24-2.46,12.67-2.08-1.39-.71-2.78-1.42-4.08-2.09-2.9,1.74-5.6-.41-8.41-.04-3.24.43-6.59.1-8.72.1-1.86,1.67-2.91,2.62-4.46,4.02ZM536.2,25.36h22.33c-3.93-4.65-9.67-.67-13.91-3.38-.3-.19-2.1.05-3.21.03-.31,0-.63.58-1.29,1.24-.75-1.04-1.49-2.08-1.91-2.67-1.44,1.08-2.66,1.99-3.88,2.91.69.69,1.16,1.16,1.88,1.88ZM588.47,28.06h14.32c-2.32-1.85-4.37-3.49-6.46-5.15-1.09.44-2.2,1.11-3.39,1.29-1.48.23-3.02.05-4.31.05-.8.86-1.35,1.46-1.91,2.06.57.57,1.04,1.04,1.75,1.75ZM70.87,667.96c-1.49-.65-2.19-.95-3.21-1.4.7-1.09,1.14-1.78,1.62-2.53-.32-.55-.86-1.2-1.1-1.94-.29-.9-.34-1.88-.49-2.83-.93.16-1.35.22-2.11.35-.55,5.05.81,9.46,4.87,14.43.19-2.9.3-4.53.41-6.07ZM78.33,272.25c-1.7,5.19-5.27,9.91-4.17,15.81,1.54-5.23,5.46-9.86,4.17-15.81ZM656.32,35.46c2.37,1.51,4.76,3.02,8.46,1.64-2.73-1.99-4.85-4.03-8.19-3.31-.12.73-.18,1.13-.27,1.68ZM73.49,683.27c-.21-3.25.82-5.15-.9-6.75-.38-.36-.82-.66-1.27-1.03-.74,1.67-1.37,3.12-2.04,4.63,1.16.87,2.13,1.6,4.21,3.15ZM87.73,749.22c-.32-.56-1-1.77-1.94-3.45-1.2,1.1-2.05,1.87-2.83,2.58.94,1.42,1.68,2.55,2.77,4.2.85-1.42,1.42-2.36,2.01-3.33ZM54.86,414.15c1.7-3.91,3.89-6.31,1.83-9.48-.61.14-1.2.27-1.83.42v9.06ZM486.83,1021.31c4.5,3.28,5.48,3.23,8.69,0h-8.69ZM681.37,42.05c.2-1.07.34-1.82.59-3.13-2.07.14-3.71.25-6.42.44,2.57,1.19,4.03,1.87,5.83,2.7ZM697.62,45.46c-2.06-.94-4.21-1.51-6.23,0h6.23ZM941.52,867.65c1.75-.49,4.04-1.18,2.06-3.58-.74,1.29-1.4,2.44-2.06,3.58ZM810.32,946.59c-.95.44-1.86.86-2.78,1.29.16.21.32.43.47.64h2.31v-1.93ZM699.43,45.92c.05.39.1.77.15,1.16.73-.17,1.45-.35,2.18-.52-.03-.21-.07-.42-.1-.64h-2.22ZM599.83,17.33c-.02-.38-.05-.76-.07-1.15-.75.16-1.49.33-2.24.49.03.22.06.44.09.66h2.22ZM716.4,50.82l-.07-1.15c-.75.16-1.49.33-2.24.49.03.22.06.44.09.66h2.22ZM518.34,1003.35v-.67h-2.68v.67h2.68ZM60.12,377.53v-.45h-1.34v.45h1.34ZM1049.82,363.23h-.45v1.34h.45v-1.34ZM939.5,871.04h.45v-1.34h-.45v1.34ZM680.46,1002.79v.45h1.34v-.45h-1.34ZM623.3,30.95h.45v-1.34h-.45v1.34ZM713.51,37.65h-.45v1.34h.45v-1.34ZM161.05,867.02h.45v-1.34h-.45v1.34ZM253.95,88.57h-.45v1.34h.45v-1.34ZM519.68,1002.79v.45h1.34v-.45h-1.34Z"/>
    </g>
  </g>
</svg>